<?xml version="1.0" encoding="UTF-8"?>
<svg xmlns="http://www.w3.org/2000/svg" xmlns:xlink="http://www.w3.org/1999/xlink" viewBox="0 0 102.21 120.71">
  <defs>
    <style>
      .cls-1, .cls-2, .cls-3, .cls-4, .cls-5, .cls-6, .cls-7, .cls-8 {
        stroke-miterlimit: 10;
      }

      .cls-1, .cls-2, .cls-3, .cls-5, .cls-6, .cls-7 {
        stroke: #3d3c35;
      }

      .cls-1, .cls-3, .cls-9 {
        fill: #fff7c7;
      }

      .cls-10, .cls-11 {
        fill: #3d3c35;
      }

      .cls-2 {
        opacity: .14;
      }

      .cls-2, .cls-6, .cls-7, .cls-8 {
        fill: none;
      }

      .cls-3, .cls-7 {
        stroke-width: .75px;
      }

      .cls-12 {
        fill: #af8210;
      }

      .cls-11 {
        font-family: NiagaraEngraved-Reg, 'Niagara Engraved';
        font-size: 24px;
      }

      .cls-4 {
        stroke: #38362a;
      }

      .cls-4, .cls-5, .cls-13 {
        fill: #38362c;
      }

      .cls-14 {
        fill: #ddaf3c;
      }

      .cls-15 {
        fill: #38362a;
      }

      .cls-16 {
        fill: #d3c479;
      }

      .cls-17 {
        fill: url(#linear-gradient);
      }

      .cls-8 {
        stroke: #d3c479;
      }
    </style>
    <linearGradient id="linear-gradient" x1="50.43" y1="70" x2="50.43" y2=".53" gradientUnits="userSpaceOnUse">
      <stop offset=".26" stop-color="#ffd255"/>
      <stop offset=".82" stop-color="#feff3f"/>
    </linearGradient>
  </defs>
  <g id="Layer_2">
    <g>
      <path class="cls-17" d="M51.47,70c-10.75,0-19.7-.08-28.15-.25-1.11-.02-2.21-.05-3.32-.09l-1.66-.04c-6.39-7.57-9.91-17.18-9.91-27.08C8.43,19.37,27.27.53,50.43.53s42,18.84,42,42c0,10.02-3.59,19.72-10.12,27.33l-1.1.02-4.68.03c-8.21.05-16.71.1-25.07.1h0Z"/>
      <path class="cls-10" d="M50.43,1.03c22.88,0,41.5,18.62,41.5,41.5,0,9.83-3.5,19.34-9.85,26.83h-.15s-.71.02-.71.02l-4.61.03c-8.24.05-16.76.1-25.15.1-10.74,0-19.68-.08-28.13-.25-1.12-.02-2.23-.05-3.35-.09l-1.4-.04c-6.23-7.45-9.65-16.88-9.65-26.59C8.93,19.65,27.55,1.03,50.43,1.03M50.43.03C26.96.03,7.93,19.06,7.93,42.53c0,10.53,3.84,20.15,10.18,27.58,1.73.05,3.47.1,5.2.14,9.38.19,18.77.26,28.15.26,9.92,0,19.84-.07,29.76-.13.44,0,.88-.02,1.32-.02,6.47-7.46,10.39-17.18,10.39-27.82C92.93,19.06,73.9.03,50.43.03h0Z"/>
    </g>
    <g>
      <path class="cls-12" d="M50.43,84.53c-5.34,0-10.53-.99-15.45-2.95,7.17-.03,14.29-.08,21.19-.15h1.48c2.93-.02,5.85-.03,8.78-.05-5.07,2.1-10.44,3.16-16,3.16Z"/>
      <path class="cls-10" d="M63.63,81.89c-4.23,1.42-8.65,2.14-13.2,2.14s-8.56-.66-12.62-1.96c6.19-.03,12.35-.08,18.36-.14h1.6c1.95-.02,3.91-.03,5.86-.04M68.81,80.86c-4.22.03-8.43.05-12.65.07-7.86.08-15.73.13-23.59.16,5.43,2.52,11.47,3.94,17.85,3.94s12.82-1.5,18.38-4.17h0Z"/>
    </g>
    <g>
      <path class="cls-14" d="M28.26,78.2c-2.24-1.4-4.37-3.02-6.34-4.85h41.2c4.73,0,9.71-.05,15.99-.15-1.87,1.75-3.93,3.34-6.14,4.75-5.3.07-10.6.12-15.9.18l-3.17.02c-1.3,0-2.6.02-3.9.02-6.99.02-13.98.03-20.98.03h-.77Z"/>
      <path class="cls-10" d="M77.79,73.72c-1.55,1.35-3.21,2.6-4.96,3.73-5.25.07-10.51.12-15.75.18-1.01,0-2.03.01-3.04.02-1.34,0-2.68.02-4.02.02-7.08.02-14.16.03-21.23.03h-.37c-1.81-1.14-3.54-2.43-5.18-3.85h8.44s15.95,0,15.95,0h15.5c4.34,0,9.05-.04,14.67-.13M80.37,72.68c-5.75.1-11.5.17-17.25.17-5.17,0-10.34,0-15.5,0-8.98,0-17.96,0-26.94,0,2.25,2.21,4.75,4.18,7.45,5.85,7.3,0,14.6,0,21.89-.03,2.35,0,4.71-.03,7.06-.04,5.35-.06,10.7-.11,16.05-.18,2.62-1.66,5.06-3.59,7.25-5.76h0Z"/>
    </g>
    <text class="cls-11" transform="translate(.19 105.98)"><tspan x="0" y="0">California Travels</tspan></text>
  </g>
  <g id="Layer_9">
    <path class="cls-2" d="M40.26,2.2s36.48,14.12,31.4,22.53-16.47,13.77-10.69,20.64c5.78,6.87,26.32,16.15,26.32,16.15"/>
    <path class="cls-2" d="M46.87.47s36.96,14.54,31.88,22.95-16.03,14.81-10.25,21.68c5.78,6.87,20.76,12.48,20.76,12.48"/>
  </g>
  <g id="Layer_3">
    <path class="cls-1" d="M33.3,37.25v26.62h14.56l2-1,1-4c6-5,10.38,2.12,10.38,2.12h1.51c1.89-2.88-.89-3.24-.89-3.24,2-6.12,0-6.88,0-6.88l-8.24-4.24c-2.52-4.09-6.66-9.76-6.66-9.76h-14.11"/>
    <g>
      <path class="cls-13" d="M55.37,66.33c-2.08,0-3.77-1.69-3.77-3.77s1.69-3.77,3.77-3.77,3.77,1.69,3.77,3.77-1.69,3.77-3.77,3.77Z"/>
      <path class="cls-10" d="M55.37,59.29c1.8,0,3.27,1.47,3.27,3.27s-1.47,3.27-3.27,3.27-3.27-1.47-3.27-3.27,1.47-3.27,3.27-3.27M55.37,58.29c-2.36,0-4.27,1.91-4.27,4.27s1.91,4.27,4.27,4.27,4.27-1.91,4.27-4.27-1.91-4.27-4.27-4.27h0Z"/>
    </g>
  </g>
  <g id="Layer_4">
    <path class="cls-3" d="M16.08,18.24s28.25.35,28.78,0c.53-.35,10.86,11.21,11.74,13.14s-1.93,3.68-1.93,3.68h-23.12v28.81H14.62"/>
    <path class="cls-5" d="M35.38,38.52v7.04l13.55.13s-1.01-4.65-4.83-7.17h-8.72Z"/>
    <path class="cls-9" d="M15.39,19.79c-3.77,4.24-5.26,10.49-5.77,16.01h6l-.02-1.29c-.05-3.61-4.67-3.78-5.89-.8-3.42,8.32-.46,19.06,3.19,26.8,1.65,3.49,6.82.45,5.18-3.03-3.03-6.42-5.4-15.32-2.59-22.17l-5.89-.8.02,1.29c.05,3.92,5.65,3.79,6,0s1.49-8.93,4.01-11.77-1.67-7.14-4.24-4.24h0Z"/>
    <path class="cls-9" d="M13,36.26c-1.32,4.33-.59,9.68-.53,14.16.05,3.86,6.05,3.87,6,0s-.82-8.81.32-12.57-4.66-5.28-5.79-1.6h0Z"/>
    <path class="cls-9" d="M14.61,61.72s-.02.04-.03.06c.02-.04.05-.07.09-.09-.05.03-.03.02.04,0-.02,0-.04.01-.06.02.08,0,.09-.01.04,0-.02,0-.04,0-.07,0,.08.01.09.01.04,0-.05-.02-.04-.01.03.01-.02-.01-.04-.02-.06-.04.05.04.05.04,0,0-.02-.02-.09-.12-.03-.02-.06-.09-.11-.19-.16-.29-.12-.25-.16-.37-.27-.63s-.2-.52-.3-.78c-.07-.19-.21-.33-.42-.36-.19-.02-.41.06-.5.24-.19.39-.17.79-.05,1.2.1.33.22.67.39.97.36.64,1.07,1.06,1.81.99l-.35-.85s-.04.04-.06.06c-.08.08.05-.02,0,0-.02.01-.05.03-.07.04-.03.02-.1.02,0,0-.03,0-.05.01-.08.02-.06.02-.02.01.02,0-.06.02-.14,0-.2,0-.26-.03-.51.25-.5.5.01.3.22.47.5.5.41.05.83-.13,1.11-.43.14-.15.18-.36.1-.55-.07-.17-.26-.33-.46-.31-.06,0-.13,0-.19,0-.03,0-.06,0-.08,0-.07,0,.08.02,0,0-.06-.02-.12-.03-.18-.05-.03,0-.05-.02-.08-.03.1.04,0,0-.01-.01-.06-.03-.11-.06-.16-.1.04.03.04.03,0,0-.02-.02-.04-.04-.06-.06s-.04-.04-.06-.06c-.09-.1.02.04-.02-.02-.04-.06-.07-.11-.11-.17-.03-.05-.06-.1-.08-.16,0-.01-.05-.12-.03-.06.02.05-.01-.03-.02-.04-.05-.12-.09-.24-.13-.36-.04-.13-.09-.27-.11-.4,0,.05,0,.04,0,0,0-.03,0-.06,0-.09,0-.09-.02.03,0-.02,0-.02.05-.11,0-.02l-.91-.12c.12.33.24.65.38.97s.24.65.42.93c.21.32.5.54.88.58.34.03.72-.14.87-.46.11-.24.08-.55-.18-.68-.22-.12-.57-.07-.68.18h0Z"/>
    <path class="cls-9" d="M14.77,62.28l-.59.07c-.07,0-.13.01-.19.04-.06.02-.12.05-.16.1-.05.05-.08.1-.1.16-.03.06-.05.12-.04.19,0,.13.05.26.15.35l.1.08c.08.05.16.07.25.07l.59-.07c.07,0,.13-.01.19-.04.06-.02.12-.05.16-.1.05-.05.08-.1.1-.16.03-.06.05-.12.04-.19,0-.13-.05-.26-.15-.35l-.1-.08c-.08-.05-.16-.07-.25-.07h0Z"/>
    <path class="cls-9" d="M14.9,62.33l-.79.08c-.07,0-.13.01-.19.04-.06.02-.12.05-.16.1-.09.09-.15.23-.15.35s.05.26.15.35c.09.08.22.16.35.15l.79-.08c.07,0,.13-.01.19-.04.06-.02.12-.05.16-.1.09-.09.15-.23.15-.35s-.05-.26-.15-.35c-.09-.08-.22-.16-.35-.15h0Z"/>
  </g>
  <g id="Layer_7">
    <path class="cls-8" d="M8.73,44.31s4.34,1.91,11.41,5.61c2.89,1.51,7,1.03,11.41.44"/>
    <path class="cls-8" d="M33.3,50.36s23.44,6.65,29,5.88"/>
    <path class="cls-16" d="M8.51,46.29c.05,1.32.71,2.52,1.94,3.09,1.13.53,2.6-.35,2.2-1.69l-.27-.93-2.2,1.69,3.4,2.16c1.26.8,2.85-.79,2.05-2.05l-.68-1.09-2.05,2.05c5.08,3.44,11.37,5.33,17.41,3.52l-1.9-1.45c-.07,3.74-.04,7.49.09,11.23l1.9-1.45c-2.44-.34-4.87-.42-7.33-.41-.65,0-7.3.19-7.34-.15l.47.18-.16-.33c-.08-.27-.28-.57-.4-.83-.24-.5-.47-1-.68-1.51-.46-1.07-.87-2.15-1.24-3.25-.77-2.27-1.37-4.59-1.82-6.95l-2.2,1.69c2.58,1.75,5.4,3.14,8.36,4.11,1.42.46,2.87.83,4.34,1.09.81.14,1.63.26,2.44.35.72.08,1.55,0,2.24.18l-.9-.69.07.12-.2-.76c.26,2.18.17,4.47.21,6.67l1.5-1.5c-1.64.12-3.05-.26-4.61-.72s-3.02-.51-4.67-.33c-.36.04-.7.04-1.06.06-.35-.05-.4-.04-.14.02l-.15-.34c-.17-.77-.75-1.66-1.08-2.38-.65-1.43-1.38-2.84-1.75-4.38l-2.2,1.69c4.21,2.76,9.14,4.23,14.17,4.29l-1.45-1.9-.91,4.35,2.51-.66c-3-2.66-6.78-3.89-10.55-5.01-1.22-.36-2.41,1.1-1.69,2.2,1.25,1.93,3.09,3.6,5.39,4.1s4.65-.13,6.21-1.83c1.31-1.42-.81-3.55-2.12-2.12-2.2,2.39-5.45.57-6.9-1.67l-1.69,2.2c3.25.96,6.64,1.94,9.23,4.23.79.7,2.26.51,2.51-.66l.91-4.35c.2-.95-.43-1.89-1.45-1.9-4.53-.05-8.87-1.4-12.66-3.88-1.14-.75-2.5.48-2.2,1.69.46,1.9,1.41,3.67,2.21,5.43.7,1.54,1.16,3.47,3.07,3.77.98.16,1.91-.03,2.88-.12.85-.07,1.62.03,2.45.26,1.93.53,3.72,1.07,5.75.92.8-.06,1.51-.64,1.5-1.5-.02-1.22-.05-2.43-.08-3.65-.03-1.08.11-2.37-.17-3.42-.34-1.24-1.56-1.26-2.61-1.32s-2.13-.18-3.19-.37c-4.31-.77-8.36-2.43-11.98-4.9-1.18-.8-2.43.52-2.2,1.69.48,2.54,1.14,5.03,2,7.47.41,1.16.87,2.31,1.36,3.45.46,1.06.89,2.48,1.72,3.32s2.28.73,3.39.77c1.35.06,2.71.05,4.06.05,2.69-.01,5.41-.08,8.08.29.92.13,1.94-.37,1.9-1.45-.13-3.74-.16-7.48-.09-11.23.02-.96-.97-1.72-1.9-1.45-5.31,1.59-10.66-.21-15.1-3.22-1.25-.85-2.83.82-2.05,2.05l.68,1.09,2.05-2.05-3.4-2.16c-1.11-.71-2.56.46-2.2,1.69l.27.93,2.2-1.69c-.28-.13-.44-.19-.45-.5-.07-1.92-3.07-1.93-3,0h0Z"/>
    <path class="cls-16" d="M33.96,53.54c2.57,1.17,5.21,2.15,7.94,2.91,1.6.45,2.7-1.96,1.16-2.74-1.03-.52-2.02-1.12-2.96-1.79l-1.16,2.74c4.01,1.51,8.04,2.94,12.33,3.33l-.76-2.8c-1.38.6-2.2,1.94-2.66,3.32-.22.64-.3,1.31-.45,1.97-.05.2-.06.34-.1.36-.17.09-.59,0-.78-.03-1.86-.2-3.68-.35-5.56-.32-.97.02-1.95.06-2.92.11-.43.02-.86.04-1.3.07-.35.02-1.03.13-1.27.05l.9.69c.08.38.12.34.13-.15l.04-.32c.04-.32.08-.64.11-.96.06-.64.1-1.28.13-1.93.05-1.29,0-2.58-.1-3.86-.16-1.9-3.09-1.95-3,0,.12,2.72.03,5.46-.34,8.16-.09.67.06,1.33.69,1.69.55.32,1.38.26,1.82-.23.9-1.01,1.46-2.23,1.69-3.56.12-.71.19-1.42.22-2.14.02-.35.03-.7.05-1.06.01-.2.02-.4.04-.6.06-.38.04-.4-.07-.05l-.9.69c.69-.18,1.72.2,2.38.37.94.25,1.86.56,2.8.81,1.84.49,3.73.77,5.61,1.05l-.9-2.2c-.3.69-.53,1.48-.95,2.1l.54-.54c.4,0,.4-.05,0-.12-.2-.05-.4-.11-.6-.16-.3-.08-.6-.15-.91-.22-.71-.17-1.42-.32-2.13-.45-1.46-.28-2.92-.49-4.39-.67-.85-.1-1.44.77-1.5,1.5-.13,1.62,1.26,2.79,2.74,3.01,1.58.23,3.31-.05,4.9-.14,1.92-.1,1.94-3,0-3-2.52,0-5.04.01-7.56.02-1.93,0-1.93,3,0,3,2.52,0,5.04-.01,7.56-.02v-3c-1.01.05-2.02.11-3.03.16-.43.02-.95.13-1.37.04-.09-.02-.21-.08-.3-.08-.14,0,.06.02.06.01l-1.5,1.5c2.13.25,4.25.65,6.33,1.16.95.24,2.09.73,3.03.18s1.27-1.83,1.68-2.78c.33-.77.17-2.05-.9-2.2-1.78-.26-3.57-.52-5.31-.97s-3.56-1.13-5.43-1.32c-.91-.09-1.99-.13-2.53.75-.43.68-.36,1.69-.4,2.47-.07,1.45-.04,3.18-1.07,4.33l2.51,1.46c.41-2.98.58-5.95.45-8.95h-3c.13,1.5.16,3,.07,4.5-.04.64-.09,1.29-.17,1.92-.09.71-.3,1.47.09,2.14.76,1.34,2.45.94,3.72.87,1.46-.07,2.92-.15,4.38-.15s2.79.07,4.18.25c1.21.16,2.45.19,3.41-.7,1.52-1.4.59-4.35,2.66-5.25.6-.26.85-1.11.69-1.69-.19-.67-.78-1.04-1.45-1.1-4-.36-7.81-1.82-11.54-3.22-.69-.26-1.51.23-1.77.87-.29.73-.01,1.43.61,1.87.95.67,1.93,1.26,2.96,1.79l1.16-2.74c-2.47-.69-4.88-1.55-7.22-2.61-.74-.33-1.61-.21-2.05.54-.38.64-.2,1.72.54,2.05h0Z"/>
    <path class="cls-16" d="M61.84,58.96s.39,1.19-.08.58c-.24-.31-.37-.71-.62-1.03-.51-.67-1.2-1.19-1.95-1.56-1.67-.83-3.74-1.05-5.59-1.08-.16,0-.5-.05-.64.03-.26.15-.22.62-.5.81-.3.2-.06-.07.04-.16.16-.15.42-.22.62-.25.88-.16,1.83.16,2.7.27,1.01.13,2.01.18,2.97.54.85.32,1.67.68,2.6.42l-.62-.62c-.05.18-.18.29-.37.25l-.13.98c.33-.04.55.51.71.75.21.32.42.63.63.95.36.53,1.22.03.86-.5s-.67-1.05-1.04-1.55c-.28-.38-.67-.71-1.17-.64s-.74.85-.13.98c.72.15,1.4-.23,1.6-.95.1-.37-.25-.72-.62-.62-.63.18-1.23-.1-1.81-.32-.63-.25-1.25-.41-1.92-.5s-1.31-.13-1.96-.24c-.59-.1-1.19-.23-1.79-.24-.93,0-2.28.41-2.3,1.54,0,.44.3.85.73.95.5.12,1.02-.17,1.34-.55s.46-.84.27-1.29-.67-.72-1.13-.54c-.4.15-.63.62-.49,1.02.22.67.94.47,1.47.47,1.32,0,2.74.16,4.01.51,1.12.31,2.25.89,2.94,1.87.34.48.49,1.11,1.05,1.39.49.25,1.09.09,1.35-.41.44-.83-.07-2.63-1.26-2.23-.61.2-.35,1.17.27.96h0Z"/>
  </g>
  <g id="Layer_6">
    <path class="cls-6" d="M33.3,37.25v26.62h14.56l2-1,1-4c6-5,10.38,2.12,10.38,2.12h1.51c1.89-2.88-.89-3.24-.89-3.24,2-6.12,0-6.88,0-6.88l-8.24-4.24c-2.52-4.09-6.66-9.76-6.66-9.76h-14.17"/>
    <g>
      <path class="cls-13" d="M55.37,66.33c-2.08,0-3.77-1.69-3.77-3.77s1.69-3.77,3.77-3.77,3.77,1.69,3.77,3.77-1.69,3.77-3.77,3.77Z"/>
      <path class="cls-15" d="M55.37,59.29c1.8,0,3.27,1.47,3.27,3.27s-1.47,3.27-3.27,3.27-3.27-1.47-3.27-3.27,1.47-3.27,3.27-3.27M55.37,58.29c-2.36,0-4.27,1.91-4.27,4.27s1.91,4.27,4.27,4.27,4.27-1.91,4.27-4.27-1.91-4.27-4.27-4.27h0Z"/>
    </g>
    <path class="cls-7" d="M16.08,18.24s28.25.35,28.78,0c.53-.35,10.86,11.21,11.74,13.14s-1.93,3.68-1.93,3.68h-23.12v28.81H14.62"/>
    <path class="cls-4" d="M35.38,38.52v7.04l13.55.13s-1.01-4.65-4.83-7.17h-8.72Z"/>
  </g>
  <g id="Layer_5">
    <path class="cls-10" d="M50.43,1.03c22.88,0,41.5,18.62,41.5,41.5,0,9.83-3.5,19.34-9.85,26.83-13,.21-26.37.21-38.19.21h-1.64s-23.3,0-23.3,0c-6.47-7.53-10.03-17.11-10.03-27.03C8.93,19.65,27.55,1.03,50.43,1.03M50.43.03C26.96.03,7.93,19.06,7.93,42.53c0,10.75,4,20.55,10.57,28.03h23.75c.55,0,1.09,0,1.64,0,12.89,0,25.77,0,38.65-.21,6.47-7.46,10.39-17.18,10.39-27.82C92.93,19.06,73.9.03,50.43.03h0Z"/>
    <path class="cls-10" d="M77.79,73.72c-1.55,1.35-3.21,2.6-4.96,3.73-7.74.1-16.9.21-26.34.29-6.12.05-12.36.06-17.89.08-1.9-1.18-3.7-2.51-5.38-3.96h8.42s15.97,0,15.97,0h15.51c4.34,0,9.05-.04,14.67-.13M80.37,72.68c-5.75.1-11.5.17-17.25.17-5.17,0-10.34,0-15.51,0-8.98,0-17.96,0-26.95,0,2.31,2.27,4.88,4.27,7.66,5.96,6.06-.01,12.12-.03,18.18-.08,8.88-.07,17.75-.18,26.63-.29,2.62-1.66,5.05-3.59,7.24-5.76h0Z"/>
    <path class="cls-10" d="M63.73,81.85c-4.26,1.45-8.72,2.18-13.3,2.18-4.34,0-8.57-.66-12.63-1.96,8.39-.04,17.08-.12,25.94-.22M68.94,80.79c-12.13.15-24.25.25-36.38.3,5.43,2.52,11.48,3.94,17.87,3.94s12.92-1.53,18.51-4.24h0Z"/>
  </g>
</svg>