<?xml version="1.0" encoding="UTF-8"?>
<svg id="Layer_1" xmlns="http://www.w3.org/2000/svg" version="1.1" viewBox="0 0 1000 800">
  <!-- Generator: Adobe Illustrator 29.2.1, SVG Export Plug-In . SVG Version: 2.1.0 Build 116)  -->
  <defs>
    <style>
      .st0 {
        fill: #4f4f4f;
      }
    </style>
  </defs>
  <g>
    <path class="st0" d="M25.07,29.57h-11.92l-2.99,7.83h-2.37l10.17-26.02h2.41l10.17,26.02h-2.48l-2.99-7.83ZM19.13,13.9l-5.25,13.7h10.46l-5.21-13.7Z"/>
    <path class="st0" d="M33.71,11.38h2.11v16.33l10.02-9.04h2.59l-6.78,6.19,7.62,12.54h-2.41l-6.78-11.26-4.26,3.83v7.43h-2.11V11.38Z"/>
    <path class="st0" d="M53.09,31.72v-11.33h-2.92v-1.71h2.92v-5.17h2.11v5.17h5.58v1.71h-5.58v11.88c0,1.19.25,2.11.75,2.77.5.66,1.27.98,2.31.98.51,0,.97-.04,1.38-.13.41-.08.8-.2,1.17-.35l.4,1.68c-.46.17-.95.31-1.48.42-.52.11-1.11.16-1.77.16-1.87,0-3.15-.53-3.84-1.6-.69-1.07-1.04-2.56-1.04-4.48Z"/>
    <path class="st0" d="M64.2,11.38h2.19v3.53h-2.19v-3.53ZM64.24,18.67h2.11v18.73h-2.11v-18.73Z"/>
    <path class="st0" d="M78.09,35.03l6.41-16.36h2.33l-7.65,18.73h-2.3l-7.62-18.73h2.44l6.38,16.36Z"/>
    <path class="st0" d="M97.33,24.46c0-2.65.43-5,1.29-7.07.86-2.06,2.14-3.69,3.84-4.88,1.7-1.19,3.8-1.79,6.3-1.79,2.67,0,4.77.64,6.29,1.93,1.52,1.29,2.54,3.05,3.08,5.28l-2.15.4c-.46-1.8-1.25-3.19-2.37-4.17-1.12-.98-2.75-1.48-4.88-1.48s-3.77.51-5.12,1.53c-1.35,1.02-2.34,2.42-2.99,4.19-.64,1.77-.97,3.78-.97,6.01,0,3.6.8,6.43,2.39,8.51,1.59,2.08,3.97,3.12,7.12,3.12,1.48,0,2.85-.2,4.1-.6,1.25-.4,2.34-.97,3.26-1.69v-7.18h-7.14v-2h9.26v10.02c-1.17,1.12-2.6,1.97-4.3,2.55-1.7.58-3.43.87-5.17.87-3.79,0-6.71-1.19-8.76-3.57-2.05-2.38-3.08-5.71-3.08-9.98Z"/>
    <path class="st0" d="M123.42,18.67h2.11v3.06c1.51-2.26,3.49-3.39,5.94-3.39.27,0,.53.01.78.04.26.02.5.06.75.11l-.26,1.97c-.24-.05-.47-.08-.69-.11-.22-.02-.46-.04-.73-.04-.85,0-1.65.16-2.41.49-.75.33-1.45.84-2.08,1.55-.44.46-.77.96-.98,1.49-.22.53-.33,1.26-.33,2.19v11.37h-2.11v-18.73Z"/>
    <path class="st0" d="M134.82,28.07c0-3.11.8-5.55,2.4-7.32,1.6-1.77,3.77-2.66,6.49-2.66s4.89.88,6.45,2.64c1.55,1.76,2.33,4.18,2.33,7.27s-.79,5.52-2.37,7.31c-1.58,1.79-3.74,2.68-6.49,2.68s-4.96-.88-6.5-2.64c-1.54-1.76-2.31-4.18-2.31-7.27ZM137.08,28.04c0,2.5.54,4.49,1.62,5.96,1.08,1.47,2.73,2.2,4.94,2.2s3.9-.74,4.99-2.22c1.09-1.48,1.64-3.47,1.64-5.98s-.55-4.45-1.64-5.92c-1.09-1.47-2.76-2.2-4.99-2.2s-3.86.73-4.94,2.2c-1.08,1.47-1.62,3.46-1.62,5.96Z"/>
    <path class="st0" d="M157.93,31.72v-11.33h-2.92v-1.71h2.92v-5.17h2.11v5.17h5.58v1.71h-5.58v11.88c0,1.19.25,2.11.75,2.77.5.66,1.27.98,2.31.98.51,0,.97-.04,1.38-.13.41-.08.8-.2,1.17-.35l.4,1.68c-.46.17-.95.31-1.48.42-.52.11-1.11.16-1.77.16-1.87,0-3.15-.53-3.84-1.6-.69-1.07-1.04-2.56-1.04-4.48Z"/>
    <path class="st0" d="M168.31,28.18c0-3.23.79-5.72,2.37-7.47,1.58-1.75,3.67-2.62,6.27-2.62s4.69.84,5.99,2.51c1.3,1.68,1.95,3.94,1.95,6.78v1.17h-14.43c.07,2.45.66,4.35,1.77,5.68,1.11,1.34,2.68,2,4.72,2,1.6,0,2.85-.33,3.75-.98.9-.66,1.49-1.58,1.79-2.77h2.04c-.32,1.7-1.11,3.04-2.39,4.03s-3.01,1.48-5.19,1.48c-2.77,0-4.9-.86-6.4-2.59-1.49-1.72-2.24-4.13-2.24-7.21ZM172.23,21.77c-1.01,1.34-1.58,3.05-1.73,5.14h12.28c-.07-2.31-.56-4.07-1.46-5.3-.9-1.23-2.37-1.84-4.41-1.84s-3.67.67-4.68,2Z"/>
    <path class="st0" d="M201.36,32.52c0-1-.29-1.78-.86-2.35-.57-.57-1.72-1-3.44-1.29l-2.11-.33c-2.09-.34-3.64-.9-4.66-1.68-1.02-.78-1.53-1.96-1.53-3.53s.65-2.94,1.95-3.86c1.3-.92,3.01-1.38,5.12-1.38,1.6,0,2.89.19,3.86.58.97.39,1.72.95,2.26,1.68.53.73.93,1.59,1.2,2.59l-1.93.33c-.39-1.19-.96-2.06-1.71-2.62-.75-.56-1.96-.84-3.61-.84-1.82,0-3.13.32-3.92.95-.79.63-1.18,1.46-1.18,2.48,0,.95.3,1.68.89,2.2.59.52,1.68.92,3.26,1.18l2.37.36c2.28.39,3.89,1,4.83,1.82.93.83,1.4,2.07,1.4,3.72s-.61,2.98-1.84,3.97c-1.23,1-3.04,1.49-5.45,1.49-2.26,0-4.12-.46-5.58-1.37s-2.27-2.39-2.44-4.43h2.04c.22,1.41.83,2.44,1.82,3.08,1,.64,2.37.97,4.12.97s3.1-.32,3.92-.97c.81-.64,1.22-1.56,1.22-2.75Z"/>
    <path class="st0" d="M207.85,11.38h2.11v16.33l10.02-9.04h2.59l-6.78,6.19,7.62,12.54h-2.41l-6.78-11.26-4.26,3.83v7.43h-2.11V11.38Z"/>
    <path class="st0" d="M13.65,72.86l-3.01,8.27h-2.61l9.21-25.44h3.15l9.61,25.44h-2.8l-3.09-8.27h-10.46ZM23.36,70.56c-2.65-7.16-4.05-10.76-4.58-12.57h-.04c-.62,2.03-2.19,6.44-4.33,12.57h8.94Z"/>
    <path class="st0" d="M47.64,75.64c-.83,3.2-2.96,5.93-7.33,5.93-4.79,0-8-3.51-8-9.52,0-5.1,2.79-9.69,8.22-9.69,4.94,0,6.82,3.51,7.1,5.99h-2.45c-.51-2.01-1.8-3.84-4.7-3.84-3.59,0-5.63,3.06-5.63,7.46s1.93,7.47,5.48,7.47c2.5,0,3.99-1.3,4.85-3.79h2.45Z"/>
    <path class="st0" d="M65.69,75.78c0,1.79.03,4.48.04,5.35h-2.36c-.07-.48-.11-1.65-.12-2.99-.83,2.1-2.65,3.43-5.74,3.43-2.85,0-6.03-1.26-6.03-6.67v-12.1h2.41v11.55c0,2.56.8,4.98,4.17,4.98,3.77,0,5.2-2.11,5.2-7.05v-9.49h2.44v12.99Z"/>
    <path class="st0" d="M71.41,67.52c0-1.58,0-3.27-.04-4.73h2.37c.04.59.12,2.06.1,3.06.8-1.75,2.45-3.5,5.43-3.5,2.58,0,4.49,1.3,5.21,3.47.95-1.83,2.73-3.47,5.92-3.47,2.89,0,5.77,1.68,5.77,6.72v12.06h-2.42v-11.76c0-2.31-.83-4.79-3.99-4.79s-4.76,2.59-4.76,6v10.55h-2.39v-11.7c0-2.53-.74-4.85-3.89-4.85s-4.86,2.8-4.86,6.43v10.11h-2.43v-13.61Z"/>
    <path class="st0" d="M101.91,54.32h2.44v3.74h-2.44v-3.74ZM101.91,62.79h2.44v18.34h-2.44v-18.34Z"/>
    <path class="st0" d="M110.12,67.41c0-1.6,0-3.17-.04-4.62h2.38c.08.57.12,2.74.1,3.27.77-1.74,2.27-3.71,5.94-3.71,3.34,0,6.15,1.96,6.15,6.93v11.84h-2.44v-11.5c0-3.04-1.23-5.05-4.24-5.05-3.95,0-5.4,3.18-5.4,7.03v9.51h-2.44v-13.72Z"/>
  </g>
  <g>
    <g>
      <path class="st0" d="M382.91,616h-15.45c-1.18-2.83-1.81-12.03-2.12-28.32-7.47,13.25-23.06,30.68-60.34,30.68-54.7,0-83.2-41.59-83.2-95.66,0-56.84,30.49-99.56,86.93-99.56,42.44,0,69.9,22.57,75.63,57.13h-19.43c-7.39-24.34-24.56-40.2-56.75-40.2-46.01,0-65.83,36.17-65.83,81.63,0,41.53,19.44,79.63,64.32,79.63s57.39-29.79,57.39-67.37v-2.09h-57.84v-17.2h76.68v101.34Z"/>
      <path class="st0" d="M450.36,529.46v86.53h-19.48v-190.14h70.94c38.2,0,58.48,20.59,58.48,50.38,0,24.42-14.31,39.82-34.15,44.63,17.73,4.41,30.98,16.65,30.98,49.28v7.7c0,13.22-.87,30.54,2.5,38.15h-19.26c-3.5-8.17-2.94-23.21-2.94-40.2v-4.51c0-29.36-8.52-41.82-43.88-41.82h-43.18ZM450.36,512.44h43.85c31.45,0,45.71-11.79,45.71-35.14,0-21.94-14.29-34.41-42.19-34.41h-47.37v69.56Z"/>
      <path class="st0" d="M766.31,519.7c0,52.07-28.44,99.03-87.66,99.03-54.62,0-85.86-43.22-85.86-97.79s30.93-97.79,87.89-97.79c52.78,0,85.63,40.65,85.63,96.56ZM613.35,520.11c0,42.54,22.76,81.45,66.25,81.45,46.9,0,66.16-38.48,66.16-81.55s-21.81-79.72-65.83-79.72c-46.28,0-66.57,37.96-66.57,79.82ZM721.46,596.05l56.73,40.53-12.3,14.05-63.07-44.89,18.64-9.69Z"/>
    </g>
    <g>
      <path class="st0" d="M227.92,252.06c0-19.79,3.22-37.41,9.67-52.84,6.44-15.43,16.02-27.6,28.74-36.5,12.71-8.89,28.42-13.35,47.12-13.35,19.97,0,35.64,4.81,46.99,14.44,11.35,9.63,19.02,22.79,23.02,39.5l-16.07,3c-3.45-13.44-9.35-23.83-17.71-31.19-8.35-7.36-20.52-11.03-36.5-11.03s-28.19,3.81-38.27,11.44c-10.08,7.63-17.53,18.07-22.34,31.32-4.81,13.26-7.22,28.24-7.22,44.94,0,26.88,5.95,48.08,17.84,63.6,11.89,15.53,29.64,23.29,53.25,23.29,11.07,0,21.29-1.5,30.64-4.49,9.35-3,17.48-7.22,24.38-12.67v-53.66h-53.39v-14.98h69.19v74.91c-8.72,8.35-19.43,14.71-32.14,19.07-12.71,4.36-25.6,6.54-38.68,6.54-28.33,0-50.17-8.9-65.51-26.69-15.35-17.79-23.02-42.67-23.02-74.63Z"/>
      <path class="st0" d="M426.22,154.27h64.83c16.7,0,29.87,2.41,39.5,7.22,9.62,4.81,16.48,11.26,20.56,19.34,4.09,8.08,6.13,17.12,6.13,27.1,0,12.71-2.82,23.43-8.44,32.14-5.63,8.72-14.44,15.16-26.42,19.34l41.67,89.34h-18.52l-38.95-85.8c-5.09.73-10.53,1.09-16.34,1.09h-47.4v84.71h-16.62v-194.48ZM540.08,208.2c0-12.89-3.72-22.7-11.17-29.42-7.45-6.72-20.34-10.08-38.68-10.08h-47.4v80.63h49.3c17.79,0,30.23-3.54,37.32-10.62,7.08-7.08,10.62-17.25,10.62-30.51Z"/>
      <path class="st0" d="M588.02,251.51c0-21.42,3.63-39.77,10.9-55.02,7.26-15.25,17.43-26.92,30.51-35,13.07-8.08,28.23-12.12,45.49-12.12s32.91,4,45.9,11.98c12.98,7.99,23.11,19.57,30.37,34.73,7.26,15.16,10.9,33.46,10.9,54.89,0,17.43-2.45,32.96-7.35,46.58-4.9,13.62-11.81,24.79-20.7,33.5l24.24,28.87-10.9,9.53-24.24-29.14c-13.07,8.72-29.15,13.07-48.21,13.07-17.43,0-32.64-4-45.63-11.98-12.98-7.99-23.11-19.61-30.37-34.87-7.27-15.25-10.9-33.59-10.9-55.02ZM605.45,251.51c0,17.8,2.68,33.23,8.04,46.31,5.35,13.07,13.21,23.15,23.56,30.23,10.35,7.08,22.97,10.62,37.86,10.62s28.23-3.63,38.41-10.89l-26.42-31.87,10.9-9.26,25.88,31.6c6.72-7.63,11.89-17.07,15.53-28.33,3.63-11.26,5.45-24.06,5.45-38.41,0-17.79-2.72-33.23-8.17-46.31-5.45-13.07-13.35-23.2-23.7-30.37-10.35-7.17-22.97-10.76-37.86-10.76s-27.51,3.59-37.86,10.76c-10.35,7.17-18.21,17.3-23.56,30.37-5.36,13.07-8.04,28.51-8.04,46.31Z"/>
    </g>
  </g>
</svg>