<?xml version="1.0" encoding="UTF-8"?>
<svg xmlns="http://www.w3.org/2000/svg" version="1.1" viewBox="0 0 1000 800">
  <defs>
    <style>
      .cls-1 {
        fill: #4f4f4f;
      }

      .cls-2 {
        fill: #e80000;
      }

      .cls-3 {
        fill: #002ada;
      }
    </style>
  </defs>
  <!-- Generator: Adobe Illustrator 28.7.3, SVG Export Plug-In . SVG Version: 1.2.0 Build 164)  -->
  <g>
    <g id="Layer_1">
      <g>
        <path class="cls-1" d="M25.07,29.57h-11.92l-2.99,7.83h-2.37l10.17-26.02h2.41l10.17,26.02h-2.48s-2.99-7.83-2.99-7.83ZM19.13,13.9l-5.25,13.7h10.46s-5.21-13.7-5.21-13.7Z"/>
        <path class="cls-1" d="M33.71,11.38h2.11v16.33l10.02-9.04h2.59l-6.78,6.19,7.62,12.54h-2.41l-6.78-11.26-4.26,3.83v7.43h-2.11V11.38Z"/>
        <path class="cls-1" d="M53.09,31.72v-11.33h-2.92v-1.71h2.92v-5.17h2.11v5.17h5.58v1.71h-5.58v11.88c0,1.19.25,2.11.75,2.77s1.27.98,2.31.98c.51,0,.97-.04,1.38-.13.41-.08.8-.2,1.17-.35l.4,1.68c-.46.17-.95.31-1.48.42-.52.11-1.11.16-1.77.16-1.87,0-3.15-.53-3.84-1.6s-1.04-2.56-1.04-4.48h.01Z"/>
        <path class="cls-1" d="M64.2,11.38h2.19v3.53h-2.19v-3.53ZM64.24,18.67h2.11v18.73h-2.11v-18.73Z"/>
        <path class="cls-1" d="M78.09,35.03l6.41-16.36h2.33l-7.65,18.73h-2.3l-7.62-18.73h2.44l6.38,16.36h.01Z"/>
        <path class="cls-1" d="M97.33,24.46c0-2.65.43-5,1.29-7.07.86-2.06,2.14-3.69,3.84-4.88s3.8-1.79,6.3-1.79c2.67,0,4.77.64,6.29,1.93,1.52,1.29,2.54,3.05,3.08,5.28l-2.15.4c-.46-1.8-1.25-3.19-2.37-4.17s-2.75-1.48-4.88-1.48-3.77.51-5.12,1.53c-1.35,1.02-2.34,2.42-2.99,4.19-.64,1.77-.97,3.78-.97,6.01,0,3.6.8,6.43,2.39,8.51,1.59,2.08,3.97,3.12,7.12,3.12,1.48,0,2.85-.2,4.1-.6,1.25-.4,2.34-.97,3.26-1.69v-7.18h-7.14v-2h9.26v10.02c-1.17,1.12-2.6,1.97-4.3,2.55-1.7.58-3.43.87-5.17.87-3.79,0-6.71-1.19-8.76-3.57s-3.08-5.71-3.08-9.98Z"/>
        <path class="cls-1" d="M123.42,18.67h2.11v3.06c1.51-2.26,3.49-3.39,5.94-3.39.27,0,.53.01.78.04.26.02.5.06.75.11l-.26,1.97c-.24-.05-.47-.08-.69-.11-.22-.02-.46-.04-.73-.04-.85,0-1.65.16-2.41.49-.75.33-1.45.84-2.08,1.55-.44.46-.77.96-.98,1.49-.22.53-.33,1.26-.33,2.19v11.37h-2.11v-18.73h.01Z"/>
        <path class="cls-1" d="M134.82,28.07c0-3.11.8-5.55,2.4-7.32,1.6-1.77,3.77-2.66,6.49-2.66s4.89.88,6.45,2.64c1.55,1.76,2.33,4.18,2.33,7.27s-.79,5.52-2.37,7.31-3.74,2.68-6.49,2.68-4.96-.88-6.5-2.64-2.31-4.18-2.31-7.27h0ZM137.08,28.04c0,2.5.54,4.49,1.62,5.96s2.73,2.2,4.94,2.2,3.9-.74,4.99-2.22c1.09-1.48,1.64-3.47,1.64-5.98s-.55-4.45-1.64-5.92-2.76-2.2-4.99-2.2-3.86.73-4.94,2.2c-1.08,1.47-1.62,3.46-1.62,5.96Z"/>
        <path class="cls-1" d="M157.93,31.72v-11.33h-2.92v-1.71h2.92v-5.17h2.11v5.17h5.58v1.71h-5.58v11.88c0,1.19.25,2.11.75,2.77s1.27.98,2.31.98c.51,0,.97-.04,1.38-.13.41-.08.8-.2,1.17-.35l.4,1.68c-.46.17-.95.31-1.48.42-.52.11-1.11.16-1.77.16-1.87,0-3.15-.53-3.84-1.6s-1.04-2.56-1.04-4.48h0Z"/>
        <path class="cls-1" d="M168.31,28.18c0-3.23.79-5.72,2.37-7.47s3.67-2.62,6.27-2.62,4.69.84,5.99,2.51c1.3,1.68,1.95,3.94,1.95,6.78v1.17h-14.43c.07,2.45.66,4.35,1.77,5.68,1.11,1.34,2.68,2,4.72,2,1.6,0,2.85-.33,3.75-.98.9-.66,1.49-1.58,1.79-2.77h2.04c-.32,1.7-1.11,3.04-2.39,4.03s-3.01,1.48-5.19,1.48c-2.77,0-4.9-.86-6.4-2.59-1.49-1.72-2.24-4.13-2.24-7.21h0ZM172.23,21.77c-1.01,1.34-1.58,3.05-1.73,5.14h12.28c-.07-2.31-.56-4.07-1.46-5.3-.9-1.23-2.37-1.84-4.41-1.84s-3.67.67-4.68,2Z"/>
        <path class="cls-1" d="M201.36,32.52c0-1-.29-1.78-.86-2.35s-1.72-1-3.44-1.29l-2.11-.33c-2.09-.34-3.64-.9-4.66-1.68s-1.53-1.96-1.53-3.53.65-2.94,1.95-3.86,3.01-1.38,5.12-1.38c1.6,0,2.89.19,3.86.58s1.72.95,2.26,1.68c.53.73.93,1.59,1.2,2.59l-1.93.33c-.39-1.19-.96-2.06-1.71-2.62-.75-.56-1.96-.84-3.61-.84-1.82,0-3.13.32-3.92.95-.79.63-1.18,1.46-1.18,2.48,0,.95.3,1.68.89,2.2s1.68.92,3.26,1.18l2.37.36c2.28.39,3.89,1,4.83,1.82.93.83,1.4,2.07,1.4,3.72s-.61,2.98-1.84,3.97c-1.23,1-3.04,1.49-5.45,1.49-2.26,0-4.12-.46-5.58-1.37s-2.27-2.39-2.44-4.43h2.04c.22,1.41.83,2.44,1.82,3.08,1,.64,2.37.97,4.12.97s3.1-.32,3.92-.97c.81-.64,1.22-1.56,1.22-2.75h0Z"/>
        <path class="cls-1" d="M207.85,11.38h2.11v16.33l10.02-9.04h2.59l-6.78,6.19,7.62,12.54h-2.41l-6.78-11.26-4.26,3.83v7.43h-2.11V11.38Z"/>
        <path class="cls-1" d="M13.65,72.86l-3.01,8.27h-2.61l9.21-25.44h3.15l9.61,25.44h-2.8l-3.09-8.27h-10.46ZM23.36,70.56c-2.65-7.16-4.05-10.76-4.58-12.57h-.04c-.62,2.03-2.19,6.44-4.33,12.57h8.95Z"/>
        <path class="cls-1" d="M47.64,75.64c-.83,3.2-2.96,5.93-7.33,5.93-4.79,0-8-3.51-8-9.52,0-5.1,2.79-9.69,8.22-9.69,4.94,0,6.82,3.51,7.1,5.99h-2.45c-.51-2.01-1.8-3.84-4.7-3.84-3.59,0-5.63,3.06-5.63,7.46s1.93,7.47,5.48,7.47c2.5,0,3.99-1.3,4.85-3.79h2.46Z"/>
        <path class="cls-1" d="M65.69,75.78c0,1.79.03,4.48.04,5.35h-2.36c-.07-.48-.11-1.65-.12-2.99-.83,2.1-2.65,3.43-5.74,3.43-2.85,0-6.03-1.26-6.03-6.67v-12.1h2.41v11.55c0,2.56.8,4.98,4.17,4.98,3.77,0,5.2-2.11,5.2-7.05v-9.49h2.44v12.99h-.01Z"/>
        <path class="cls-1" d="M71.41,67.52c0-1.58,0-3.27-.04-4.73h2.37c.04.59.12,2.06.1,3.06.8-1.75,2.45-3.5,5.43-3.5,2.58,0,4.49,1.3,5.21,3.47.95-1.83,2.73-3.47,5.92-3.47,2.89,0,5.77,1.68,5.77,6.72v12.06h-2.42v-11.76c0-2.31-.83-4.79-3.99-4.79s-4.76,2.59-4.76,6v10.55h-2.39v-11.7c0-2.53-.74-4.85-3.89-4.85s-4.86,2.8-4.86,6.43v10.11h-2.43v-13.61h-.02Z"/>
        <path class="cls-1" d="M101.91,54.32h2.44v3.74h-2.44v-3.74ZM101.91,62.79h2.44v18.34h-2.44v-18.34Z"/>
        <path class="cls-1" d="M110.12,67.41c0-1.6,0-3.17-.04-4.62h2.38c.08.57.12,2.74.1,3.27.77-1.74,2.27-3.71,5.94-3.71,3.34,0,6.15,1.96,6.15,6.93v11.84h-2.44v-11.5c0-3.04-1.23-5.05-4.24-5.05-3.95,0-5.4,3.18-5.4,7.03v9.51h-2.44v-13.72.02Z"/>
      </g>
      <g>
        <path class="cls-1" d="M141.89,323.38h16.71v26.94h-16.71v-26.94Z"/>
        <path class="cls-1" d="M249.4,323.38h15.96v26.94h-15.96v-26.94ZM249.9,172.22h14.97l-.5,129.96h-13.97l-.5-129.96Z"/>
        <path class="cls-1" d="M392.08,299.69c0-5.82.66-10.85,2-15.09,1.33-4.24,3.95-8.81,7.86-13.72,3.91-4.9,9.52-11.1,16.84-18.58,5.32-5.32,9.56-10.64,12.72-15.96,3.16-5.32,4.74-11.72,4.74-19.21,0-10.81-3.16-19.33-9.48-25.57-6.32-6.24-15.13-9.35-26.44-9.35s-20.37,2.79-26.69,8.36c-6.32,5.57-10.98,14.26-13.97,26.07l-13.22-2.25c2.33-12.97,7.77-23.7,16.34-32.18,8.56-8.48,21.16-12.72,37.79-12.72s28.39,4.24,37.29,12.72c8.89,8.48,13.35,19.62,13.35,33.43,0,9.15-1.83,17.09-5.49,23.82-3.66,6.74-8.48,13.01-14.47,18.83-6.82,6.49-12.02,11.93-15.59,16.34-3.58,4.41-5.99,8.48-7.23,12.22-1.25,3.74-1.87,8.03-1.87,12.85v2.74h-14.47v-2.74ZM391.08,323.38h15.96v26.94h-15.96v-26.94Z"/>
      </g>
      <path class="cls-1" d="M140.64,598.1v-32.18h12.47v32.18h-12.47Z"/>
      <path class="cls-1" d="M251.82,542.22l-1.25-87.81v-30.93h13.72v30.93l-1.25,87.81h-11.23ZM250.82,598.35v-29.68h12.72v29.68h-12.72Z"/>
      <path class="cls-1" d="M390.85,546.96v-3.24c0-10.98,2.25-23.45,22.7-41.66,16.96-15.22,18.96-26.44,18.96-37.67,0-13.72-8.98-31.68-32.68-31.68-21.45,0-32.68,12.72-36.17,33.18h-12.47c.75-11.47,8.98-44.9,48.89-44.9,33.43,0,45.65,24.45,45.65,43.16s-5.99,30.43-24.45,46.9c-13.72,12.22-17.96,21.2-17.96,34.17v1.75h-12.47ZM390.85,598.1v-29.68h12.47v29.68h-12.47Z"/>
      <rect class="cls-3" x="124.58" y="563.79" width="1.09" height="34.3"/>
      <rect class="cls-2" x="128.4" y="323.39" width="1.09" height="26.93"/>
      <rect class="cls-3" x="127.23" y="560.05" width="1.09" height="6.39" transform="translate(691.02 435.47) rotate(90)"/>
      <rect class="cls-3" x="127.23" y="595.45" width="1.09" height="6.39" transform="translate(726.42 470.87) rotate(90)"/>
      <rect class="cls-2" x="131.05" y="319.65" width="1.09" height="6.39" transform="translate(454.45 191.25) rotate(90)"/>
      <rect class="cls-2" x="131.05" y="347.67" width="1.09" height="6.39" transform="translate(482.47 219.27) rotate(90)"/>
      <rect class="cls-3" x="835.28" y="284.51" width="6.86" height="215.46"/>
      <rect class="cls-2" x="588.93" y="330.83" width="6.86" height="169.14"/>
      <rect class="cls-3" x="851.92" y="261.01" width="6.86" height="40.14" transform="translate(1136.43 -574.27) rotate(90)"/>
      <rect class="cls-3" x="851.92" y="483.33" width="6.86" height="40.14" transform="translate(1358.75 -351.95) rotate(90)"/>
      <rect class="cls-2" x="605.57" y="307.33" width="6.86" height="40.14" transform="translate(936.4 -281.6) rotate(90)"/>
      <rect class="cls-2" x="605.57" y="483.33" width="6.86" height="40.14" transform="translate(1112.4 -105.6) rotate(90)"/>
      <path class="cls-1" d="M759.8,375.04c-24.14,10.27-48,21.18-71.56,32.72-6.69,3.28-13.35,6.6-19.99,9.98-2.17,1.1-1.71,3.97,0,5.18,10.87,7.7,22.63,14.11,34.5,20.12,12.53,6.35,25.31,12.19,38.1,17.96,6.32,2.85,12.65,5.69,18.95,8.59,1.47.68,3.23.42,4.1-1.08.76-1.29.4-3.42-1.08-4.1-11.7-5.4-23.49-10.58-35.18-16-12.84-5.96-25.59-12.14-37.92-19.11-6.32-3.58-12.53-7.37-18.46-11.57v5.18c23.38-11.89,47.08-23.16,71.06-33.79,6.81-3.02,13.64-5.99,20.5-8.9,1.49-.63,1.82-2.83,1.08-4.1-.9-1.54-2.61-1.71-4.1-1.08h0Z"/>
    </g>
  </g>
</svg>