<?xml version="1.0" encoding="UTF-8"?>
<svg xmlns="http://www.w3.org/2000/svg" version="1.1" viewBox="0 0 1000 800">
  <!-- Generator: Adobe Illustrator 29.2.1, SVG Export Plug-In . SVG Version: 2.1.0 Build 116)  -->
  <defs>
    <style>
      .st0 {
        isolation: isolate;
      }

      .st1 {
        fill: #4f4f4f;
      }

      .st2 {
        fill: #ff2929;
        mix-blend-mode: multiply;
        opacity: .5;
      }
    </style>
  </defs>
  <g class="st0">
    <g id="Layer_1">
      <path class="st1" d="M359.35,634.98c0,17.45,1.55,33.64,2.72,39.6h-24.91c-1.55-4.53-2.72-13.44-3.37-28.01-6.72,13.8-23.17,32.67-62.33,32.67-45.63,0-65.22-29.6-65.22-59.07,0-43.24,33.67-62.95,91.99-62.95h35.37v-18.42c0-18.47-5.7-42.29-46.57-42.29-36.33,0-42.02,18.64-45.98,34.3h-25.5c2.45-23.95,17.26-56.19,72.18-56.13,45.98.06,71.62,19.12,71.62,62.74v97.57ZM333.93,577h-35.23c-41.33,0-65.49,11.07-65.49,41.88,0,22.64,15.91,38.52,41.76,38.52,51.81,0,58.95-34.62,58.95-73.73v-6.67Z"/>
      <path class="st1" d="M476.25,540.17c0-30.29-.33-44.94-.39-53.08h25.48c.45,5.9.9,19.68.9,41.96,10.82-27.98,35.03-45.32,66.96-46.62v26.8c-40.35,2.03-66.96,26.86-66.96,74.65v98.46h-26v-142.17Z"/>
      <path class="st1" d="M673.94,487.09h35.15v-59.41h26v59.41h44.93v22.53h-44.93v121.19c0,20.55,4.66,31.78,22.91,31.78,5.32,0,12.97-.33,18.81-2.02v20.93c-7.41,2.9-17.78,3.55-26.48,3.55-27.45,0-41.23-13.97-41.23-45.76v-129.68h-35.15v-22.53Z"/>
      <path class="st1" d="M204.72,293.16c0-16.55,4.27-29.55,12.8-39,8.54-9.44,20.37-16.23,35.5-20.37,15.13-4.13,32.53-6.6,52.19-7.37l39.97-1.55v-8.54c0-19.92-4.07-34.08-12.22-42.49-8.15-8.4-21.8-12.61-40.94-12.61-17.33,0-30.46,2.91-39.38,8.73-8.92,5.82-14.81,14.42-17.65,25.8l-20.56-2.33c3.62-17.33,11.96-30.07,25.03-38.22,13.06-8.15,30.85-12.22,53.35-12.22,26.9,0,46.11,6.21,57.62,18.62,11.51,12.42,17.27,30.91,17.27,55.49v131.54h-22.12v-31.43c-7.51,10.61-17.14,19.27-28.91,26-11.77,6.72-25.94,10.09-42.49,10.09-21.21,0-38.09-5.1-50.64-15.33-12.55-10.22-18.82-25.15-18.82-44.81ZM228,292.39c0,13.19,4.01,23.47,12.03,30.85,8.01,7.37,20.3,11.06,36.86,11.06,19.4,0,35.63-5.04,48.7-15.13,13.06-10.09,19.59-24.57,19.59-43.46v-33.76l-38.02,1.55c-19.92.78-35.7,2.98-47.34,6.6-11.64,3.63-19.86,8.92-24.64,15.91-4.79,6.98-7.18,15.78-7.18,26.38Z"/>
      <path class="st1" d="M472.84,149.21h22.5v32.59c16.04-24.06,37.12-36.08,63.25-36.08,2.84,0,5.63.13,8.34.39,2.72.26,5.37.65,7.95,1.16l-2.72,20.95c-2.59-.52-5.04-.9-7.37-1.16-2.33-.25-4.92-.39-7.76-.39-9.06,0-17.59,1.75-25.61,5.24-8.02,3.49-15.39,8.99-22.12,16.49-4.66,4.92-8.15,10.22-10.48,15.91-2.33,5.69-3.49,13.45-3.49,23.28v121.06h-22.5v-199.44Z"/>
      <path class="st1" d="M693.62,288.12v-120.67h-31.04v-18.24h31.04v-55.1h22.5v55.1h59.37v18.24h-59.37v126.49c0,12.68,2.65,22.5,7.95,29.49,5.3,6.98,13.51,10.48,24.64,10.48,5.43,0,10.34-.45,14.74-1.36,4.4-.9,8.54-2.13,12.42-3.69l4.27,17.85c-4.92,1.81-10.16,3.3-15.71,4.46-5.57,1.16-11.83,1.75-18.82,1.75-19.92,0-33.56-5.69-40.93-17.07-7.37-11.38-11.06-27.29-11.06-47.73Z"/>
      <circle class="st2" cx="224.51" cy="189.57" r="34.92"/>
      <circle class="st2" cx="573.72" cy="158.53" r="34.92"/>
      <circle class="st2" cx="558.2" cy="492.21" r="34.92"/>
      <circle class="st2" cx="775.49" cy="337.01" r="34.92"/>
      <circle class="st2" cx="775.49" cy="670.7" r="34.92"/>
      <circle class="st2" cx="356.44" cy="337.01" r="34.92"/>
      <circle class="st2" cx="232.27" cy="515.5" r="34.92"/>
      <circle class="st2" cx="348.68" cy="662.94" r="34.92"/>
      <g>
        <path class="st1" d="M25.07,29.57h-11.92l-2.99,7.83h-2.37l10.17-26.02h2.41l10.17,26.02h-2.48l-2.99-7.83ZM19.13,13.9l-5.25,13.7h10.46l-5.21-13.7Z"/>
        <path class="st1" d="M33.71,11.38h2.11v16.33l10.02-9.04h2.59l-6.78,6.19,7.62,12.54h-2.41l-6.78-11.26-4.26,3.83v7.43h-2.11V11.38Z"/>
        <path class="st1" d="M53.09,31.72v-11.33h-2.92v-1.71h2.92v-5.17h2.11v5.17h5.58v1.71h-5.58v11.88c0,1.19.25,2.11.75,2.77.5.66,1.27.98,2.31.98.51,0,.97-.04,1.38-.13.41-.08.8-.2,1.17-.35l.4,1.68c-.46.17-.95.31-1.48.42-.52.11-1.11.16-1.77.16-1.87,0-3.15-.53-3.84-1.6-.69-1.07-1.04-2.56-1.04-4.48Z"/>
        <path class="st1" d="M64.2,11.38h2.19v3.53h-2.19v-3.53ZM64.24,18.67h2.11v18.73h-2.11v-18.73Z"/>
        <path class="st1" d="M78.09,35.03l6.41-16.36h2.33l-7.65,18.73h-2.3l-7.62-18.73h2.44l6.38,16.36Z"/>
        <path class="st1" d="M97.33,24.46c0-2.65.43-5,1.29-7.07.86-2.06,2.14-3.69,3.84-4.88,1.7-1.19,3.8-1.79,6.3-1.79,2.67,0,4.77.64,6.29,1.93,1.52,1.29,2.54,3.05,3.08,5.28l-2.15.4c-.46-1.8-1.25-3.19-2.37-4.17-1.12-.98-2.75-1.48-4.88-1.48s-3.77.51-5.12,1.53c-1.35,1.02-2.34,2.42-2.99,4.19-.64,1.77-.97,3.78-.97,6.01,0,3.6.8,6.43,2.39,8.51,1.59,2.08,3.97,3.12,7.12,3.12,1.48,0,2.85-.2,4.1-.6,1.25-.4,2.34-.97,3.26-1.69v-7.18h-7.14v-2h9.26v10.02c-1.17,1.12-2.6,1.97-4.3,2.55-1.7.58-3.43.87-5.17.87-3.79,0-6.71-1.19-8.76-3.57-2.05-2.38-3.08-5.71-3.08-9.98Z"/>
        <path class="st1" d="M123.42,18.67h2.11v3.06c1.51-2.26,3.49-3.39,5.94-3.39.27,0,.53.01.78.04.26.02.5.06.75.11l-.26,1.97c-.24-.05-.47-.08-.69-.11-.22-.02-.46-.04-.73-.04-.85,0-1.65.16-2.41.49-.75.33-1.45.84-2.08,1.55-.44.46-.77.96-.98,1.49-.22.53-.33,1.26-.33,2.19v11.37h-2.11v-18.73Z"/>
        <path class="st1" d="M134.82,28.07c0-3.11.8-5.55,2.4-7.32,1.6-1.77,3.77-2.66,6.49-2.66s4.89.88,6.45,2.64c1.55,1.76,2.33,4.18,2.33,7.27s-.79,5.52-2.37,7.31c-1.58,1.79-3.74,2.68-6.49,2.68s-4.96-.88-6.5-2.64c-1.54-1.76-2.31-4.18-2.31-7.27ZM137.08,28.04c0,2.5.54,4.49,1.62,5.96,1.08,1.47,2.73,2.2,4.94,2.2s3.9-.74,4.99-2.22c1.09-1.48,1.64-3.47,1.64-5.98s-.55-4.45-1.64-5.92c-1.09-1.47-2.76-2.2-4.99-2.2s-3.86.73-4.94,2.2c-1.08,1.47-1.62,3.46-1.62,5.96Z"/>
        <path class="st1" d="M157.93,31.72v-11.33h-2.92v-1.71h2.92v-5.17h2.11v5.17h5.58v1.71h-5.58v11.88c0,1.19.25,2.11.75,2.77.5.66,1.27.98,2.31.98.51,0,.97-.04,1.38-.13.41-.08.8-.2,1.17-.35l.4,1.68c-.46.17-.95.31-1.48.42-.52.11-1.11.16-1.77.16-1.87,0-3.15-.53-3.84-1.6-.69-1.07-1.04-2.56-1.04-4.48Z"/>
        <path class="st1" d="M168.31,28.18c0-3.23.79-5.72,2.37-7.47,1.58-1.75,3.67-2.62,6.27-2.62s4.69.84,5.99,2.51c1.3,1.68,1.95,3.94,1.95,6.78v1.17h-14.43c.07,2.45.66,4.35,1.77,5.68,1.11,1.34,2.68,2,4.72,2,1.6,0,2.85-.33,3.75-.98.9-.66,1.49-1.58,1.79-2.77h2.04c-.32,1.7-1.11,3.04-2.39,4.03s-3.01,1.48-5.19,1.48c-2.77,0-4.9-.86-6.4-2.59-1.49-1.72-2.24-4.13-2.24-7.21ZM172.23,21.77c-1.01,1.34-1.58,3.05-1.73,5.14h12.28c-.07-2.31-.56-4.07-1.46-5.3-.9-1.23-2.37-1.84-4.41-1.84s-3.67.67-4.68,2Z"/>
        <path class="st1" d="M201.36,32.52c0-1-.29-1.78-.86-2.35-.57-.57-1.72-1-3.44-1.29l-2.11-.33c-2.09-.34-3.64-.9-4.66-1.68-1.02-.78-1.53-1.96-1.53-3.53s.65-2.94,1.95-3.86c1.3-.92,3.01-1.38,5.12-1.38,1.6,0,2.89.19,3.86.58.97.39,1.72.95,2.26,1.68.53.73.93,1.59,1.2,2.59l-1.93.33c-.39-1.19-.96-2.06-1.71-2.62-.75-.56-1.96-.84-3.61-.84-1.82,0-3.13.32-3.92.95-.79.63-1.18,1.46-1.18,2.48,0,.95.3,1.68.89,2.2.59.52,1.68.92,3.26,1.18l2.37.36c2.28.39,3.89,1,4.83,1.82.93.83,1.4,2.07,1.4,3.72s-.61,2.98-1.84,3.97c-1.23,1-3.04,1.49-5.45,1.49-2.26,0-4.12-.46-5.58-1.37s-2.27-2.39-2.44-4.43h2.04c.22,1.41.83,2.44,1.82,3.08,1,.64,2.37.97,4.12.97s3.1-.32,3.92-.97c.81-.64,1.22-1.56,1.22-2.75Z"/>
        <path class="st1" d="M207.85,11.38h2.11v16.33l10.02-9.04h2.59l-6.78,6.19,7.62,12.54h-2.41l-6.78-11.26-4.26,3.83v7.43h-2.11V11.38Z"/>
        <path class="st1" d="M13.65,72.86l-3.01,8.27h-2.61l9.21-25.44h3.15l9.61,25.44h-2.8l-3.09-8.27h-10.46ZM23.36,70.56c-2.65-7.16-4.05-10.76-4.58-12.57h-.04c-.62,2.03-2.19,6.44-4.33,12.57h8.94Z"/>
        <path class="st1" d="M47.64,75.64c-.83,3.2-2.96,5.93-7.33,5.93-4.79,0-8-3.51-8-9.52,0-5.1,2.79-9.69,8.22-9.69,4.94,0,6.82,3.51,7.1,5.99h-2.45c-.51-2.01-1.8-3.84-4.7-3.84-3.59,0-5.63,3.06-5.63,7.46s1.93,7.47,5.48,7.47c2.5,0,3.99-1.3,4.85-3.79h2.45Z"/>
        <path class="st1" d="M65.69,75.78c0,1.79.03,4.48.04,5.35h-2.36c-.07-.48-.11-1.65-.12-2.99-.83,2.1-2.65,3.43-5.74,3.43-2.85,0-6.03-1.26-6.03-6.67v-12.1h2.41v11.55c0,2.56.8,4.98,4.17,4.98,3.77,0,5.2-2.11,5.2-7.05v-9.49h2.44v12.99Z"/>
        <path class="st1" d="M71.41,67.52c0-1.58,0-3.27-.04-4.73h2.37c.04.59.12,2.06.1,3.06.8-1.75,2.45-3.5,5.43-3.5,2.58,0,4.49,1.3,5.21,3.47.95-1.83,2.73-3.47,5.92-3.47,2.89,0,5.77,1.68,5.77,6.72v12.06h-2.42v-11.76c0-2.31-.83-4.79-3.99-4.79s-4.76,2.59-4.76,6v10.55h-2.39v-11.7c0-2.53-.74-4.85-3.89-4.85s-4.86,2.8-4.86,6.43v10.11h-2.43v-13.61Z"/>
        <path class="st1" d="M101.91,54.32h2.44v3.74h-2.44v-3.74ZM101.91,62.79h2.44v18.34h-2.44v-18.34Z"/>
        <path class="st1" d="M110.12,67.41c0-1.6,0-3.17-.04-4.62h2.38c.08.57.12,2.74.1,3.27.77-1.74,2.27-3.71,5.94-3.71,3.34,0,6.15,1.96,6.15,6.93v11.84h-2.44v-11.5c0-3.04-1.23-5.05-4.24-5.05-3.95,0-5.4,3.18-5.4,7.03v9.51h-2.44v-13.72Z"/>
      </g>
    </g>
  </g>
</svg>