<?xml version="1.0" encoding="UTF-8"?>
<svg xmlns="http://www.w3.org/2000/svg" version="1.1" viewBox="0 0 1000 800">
  <defs>
    <style>
      .cls-1 {
        fill: #4f4f4f;
      }

      .cls-2 {
        fill: #ff2929;
        mix-blend-mode: multiply;
        opacity: .5;
      }

      .cls-3 {
        isolation: isolate;
      }
    </style>
  </defs>
  <!-- Generator: Adobe Illustrator 28.7.3, SVG Export Plug-In . SVG Version: 1.2.0 Build 164)  -->
  <g class="cls-3">
    <g id="Layer_1">
      <g>
        <path class="cls-1" d="M25.07,29.57h-11.92l-2.99,7.83h-2.37l10.17-26.02h2.41l10.17,26.02h-2.48s-2.99-7.83-2.99-7.83ZM19.13,13.9l-5.25,13.7h10.46s-5.21-13.7-5.21-13.7Z"/>
        <path class="cls-1" d="M33.71,11.38h2.11v16.33l10.02-9.04h2.59l-6.78,6.19,7.62,12.54h-2.41l-6.78-11.26-4.26,3.83v7.43h-2.11V11.38Z"/>
        <path class="cls-1" d="M53.09,31.72v-11.33h-2.92v-1.71h2.92v-5.17h2.11v5.17h5.58v1.71h-5.58v11.88c0,1.19.25,2.11.75,2.77s1.27.98,2.31.98c.51,0,.97-.04,1.38-.13.41-.08.8-.2,1.17-.35l.4,1.68c-.46.17-.95.31-1.48.42-.52.11-1.11.16-1.77.16-1.87,0-3.15-.53-3.84-1.6s-1.04-2.56-1.04-4.48h.01Z"/>
        <path class="cls-1" d="M64.2,11.38h2.19v3.53h-2.19v-3.53ZM64.24,18.67h2.11v18.73h-2.11v-18.73Z"/>
        <path class="cls-1" d="M78.09,35.03l6.41-16.36h2.33l-7.65,18.73h-2.3l-7.62-18.73h2.44l6.38,16.36h.01Z"/>
        <path class="cls-1" d="M97.33,24.46c0-2.65.43-5,1.29-7.07.86-2.06,2.14-3.69,3.84-4.88s3.8-1.79,6.3-1.79c2.67,0,4.77.64,6.29,1.93,1.52,1.29,2.54,3.05,3.08,5.28l-2.15.4c-.46-1.8-1.25-3.19-2.37-4.17s-2.75-1.48-4.88-1.48-3.77.51-5.12,1.53c-1.35,1.02-2.34,2.42-2.99,4.19-.64,1.77-.97,3.78-.97,6.01,0,3.6.8,6.43,2.39,8.51,1.59,2.08,3.97,3.12,7.12,3.12,1.48,0,2.85-.2,4.1-.6,1.25-.4,2.34-.97,3.26-1.69v-7.18h-7.14v-2h9.26v10.02c-1.17,1.12-2.6,1.97-4.3,2.55-1.7.58-3.43.87-5.17.87-3.79,0-6.71-1.19-8.76-3.57s-3.08-5.71-3.08-9.98Z"/>
        <path class="cls-1" d="M123.42,18.67h2.11v3.06c1.51-2.26,3.49-3.39,5.94-3.39.27,0,.53.01.78.04.26.02.5.06.75.11l-.26,1.97c-.24-.05-.47-.08-.69-.11-.22-.02-.46-.04-.73-.04-.85,0-1.65.16-2.41.49-.75.33-1.45.84-2.08,1.55-.44.46-.77.96-.98,1.49-.22.53-.33,1.26-.33,2.19v11.37h-2.11v-18.73h.01Z"/>
        <path class="cls-1" d="M134.82,28.07c0-3.11.8-5.55,2.4-7.32,1.6-1.77,3.77-2.66,6.49-2.66s4.89.88,6.45,2.64c1.55,1.76,2.33,4.18,2.33,7.27s-.79,5.52-2.37,7.31-3.74,2.68-6.49,2.68-4.96-.88-6.5-2.64-2.31-4.18-2.31-7.27h0ZM137.08,28.04c0,2.5.54,4.49,1.62,5.96s2.73,2.2,4.94,2.2,3.9-.74,4.99-2.22c1.09-1.48,1.64-3.47,1.64-5.98s-.55-4.45-1.64-5.92-2.76-2.2-4.99-2.2-3.86.73-4.94,2.2c-1.08,1.47-1.62,3.46-1.62,5.96Z"/>
        <path class="cls-1" d="M157.93,31.72v-11.33h-2.92v-1.71h2.92v-5.17h2.11v5.17h5.58v1.71h-5.58v11.88c0,1.19.25,2.11.75,2.77s1.27.98,2.31.98c.51,0,.97-.04,1.38-.13.41-.08.8-.2,1.17-.35l.4,1.68c-.46.17-.95.31-1.48.42-.52.11-1.11.16-1.77.16-1.87,0-3.15-.53-3.84-1.6s-1.04-2.56-1.04-4.48h0Z"/>
        <path class="cls-1" d="M168.31,28.18c0-3.23.79-5.72,2.37-7.47s3.67-2.62,6.27-2.62,4.69.84,5.99,2.51c1.3,1.68,1.95,3.94,1.95,6.78v1.17h-14.43c.07,2.45.66,4.35,1.77,5.68,1.11,1.34,2.68,2,4.72,2,1.6,0,2.85-.33,3.75-.98.9-.66,1.49-1.58,1.79-2.77h2.04c-.32,1.7-1.11,3.04-2.39,4.03s-3.01,1.48-5.19,1.48c-2.77,0-4.9-.86-6.4-2.59-1.49-1.72-2.24-4.13-2.24-7.21h0ZM172.23,21.77c-1.01,1.34-1.58,3.05-1.73,5.14h12.28c-.07-2.31-.56-4.07-1.46-5.3-.9-1.23-2.37-1.84-4.41-1.84s-3.67.67-4.68,2Z"/>
        <path class="cls-1" d="M201.36,32.52c0-1-.29-1.78-.86-2.35s-1.72-1-3.44-1.29l-2.11-.33c-2.09-.34-3.64-.9-4.66-1.68s-1.53-1.96-1.53-3.53.65-2.94,1.95-3.86,3.01-1.38,5.12-1.38c1.6,0,2.89.19,3.86.58s1.72.95,2.26,1.68c.53.73.93,1.59,1.2,2.59l-1.93.33c-.39-1.19-.96-2.06-1.71-2.62-.75-.56-1.96-.84-3.61-.84-1.82,0-3.13.32-3.92.95-.79.63-1.18,1.46-1.18,2.48,0,.95.3,1.68.89,2.2s1.68.92,3.26,1.18l2.37.36c2.28.39,3.89,1,4.83,1.82.93.83,1.4,2.07,1.4,3.72s-.61,2.98-1.84,3.97c-1.23,1-3.04,1.49-5.45,1.49-2.26,0-4.12-.46-5.58-1.37s-2.27-2.39-2.44-4.43h2.04c.22,1.41.83,2.44,1.82,3.08,1,.64,2.37.97,4.12.97s3.1-.32,3.92-.97c.81-.64,1.22-1.56,1.22-2.75h0Z"/>
        <path class="cls-1" d="M207.85,11.38h2.11v16.33l10.02-9.04h2.59l-6.78,6.19,7.62,12.54h-2.41l-6.78-11.26-4.26,3.83v7.43h-2.11V11.38Z"/>
        <path class="cls-1" d="M13.65,72.86l-3.01,8.27h-2.61l9.21-25.44h3.15l9.61,25.44h-2.8l-3.09-8.27h-10.46ZM23.36,70.56c-2.65-7.16-4.05-10.76-4.58-12.57h-.04c-.62,2.03-2.19,6.44-4.33,12.57h8.95Z"/>
        <path class="cls-1" d="M47.64,75.64c-.83,3.2-2.96,5.93-7.33,5.93-4.79,0-8-3.51-8-9.52,0-5.1,2.79-9.69,8.22-9.69,4.94,0,6.82,3.51,7.1,5.99h-2.45c-.51-2.01-1.8-3.84-4.7-3.84-3.59,0-5.63,3.06-5.63,7.46s1.93,7.47,5.48,7.47c2.5,0,3.99-1.3,4.85-3.79h2.46Z"/>
        <path class="cls-1" d="M65.69,75.78c0,1.79.03,4.48.04,5.35h-2.36c-.07-.48-.11-1.65-.12-2.99-.83,2.1-2.65,3.43-5.74,3.43-2.85,0-6.03-1.26-6.03-6.67v-12.1h2.41v11.55c0,2.56.8,4.98,4.17,4.98,3.77,0,5.2-2.11,5.2-7.05v-9.49h2.44v12.99h-.01Z"/>
        <path class="cls-1" d="M71.41,67.52c0-1.58,0-3.27-.04-4.73h2.37c.04.59.12,2.06.1,3.06.8-1.75,2.45-3.5,5.43-3.5,2.58,0,4.49,1.3,5.21,3.47.95-1.83,2.73-3.47,5.92-3.47,2.89,0,5.77,1.68,5.77,6.72v12.06h-2.42v-11.76c0-2.31-.83-4.79-3.99-4.79s-4.76,2.59-4.76,6v10.55h-2.39v-11.7c0-2.53-.74-4.85-3.89-4.85s-4.86,2.8-4.86,6.43v10.11h-2.43v-13.61h-.02Z"/>
        <path class="cls-1" d="M101.91,54.32h2.44v3.74h-2.44v-3.74ZM101.91,62.79h2.44v18.34h-2.44v-18.34Z"/>
        <path class="cls-1" d="M110.12,67.41c0-1.6,0-3.17-.04-4.62h2.38c.08.57.12,2.74.1,3.27.77-1.74,2.27-3.71,5.94-3.71,3.34,0,6.15,1.96,6.15,6.93v11.84h-2.44v-11.5c0-3.04-1.23-5.05-4.24-5.05-3.95,0-5.4,3.18-5.4,7.03v9.51h-2.44v-13.72.02Z"/>
      </g>
      <g>
        <path class="cls-1" d="M321.97,178.06l-50.89,30.06-7.74-13.39,60.11-36.01h16.66v205.63h-18.15v-186.29Z"/>
        <path class="cls-1" d="M428.8,349.47c8.13-7.14,16.27-14.33,24.4-21.57,8.13-7.24,16.17-14.53,24.1-21.87,15.47-13.88,27.87-25.84,37.2-35.86,9.32-10.02,16.07-19.44,20.24-28.27,4.17-8.83,6.25-18.2,6.25-28.12,0-14.28-3.92-25.29-11.76-33.03-7.84-7.74-18.8-11.61-32.88-11.61-14.88,0-26.24,3.47-34.07,10.42-7.84,6.95-13.64,17.36-17.41,31.25l-16.66-2.98c2.58-10.12,6.55-19.29,11.9-27.53,5.36-8.23,12.69-14.83,22.02-19.79,9.32-4.96,20.83-7.44,34.52-7.44,19.84,0,35.26,5.46,46.27,16.37,11.01,10.91,16.52,25.2,16.52,42.85,0,11.31-2.19,21.87-6.55,31.69-4.37,9.82-11.51,20.29-21.43,31.4-9.92,11.11-23.21,24.1-39.88,38.98-5.76,5.16-11.75,10.52-18,16.07-6.25,5.56-12.94,11.51-20.09,17.85h107.72l-2.98,16.07h-129.45v-14.88Z"/>
        <path class="cls-1" d="M720.13,300.37c0-16.46-3.77-29.26-11.31-38.39-7.54-9.12-19.54-13.69-36.01-13.69-19.84,0-35.81,6.65-47.91,19.94h-15.47l8.63-109.51h108.02v16.07h-93.44l-5.95,75.59c6.35-5.55,13.54-9.77,21.57-12.65,8.03-2.87,17.21-4.31,27.53-4.31,21.23,0,36.85,6.2,46.87,18.6,10.02,12.4,15.03,28.42,15.03,48.06,0,22.82-5.76,40.13-17.26,51.93-11.51,11.8-27.58,17.71-48.21,17.71s-36.11-4.81-47.61-14.43c-11.51-9.62-18.05-23.56-19.64-41.81h17.26c2.18,13.69,7.19,23.86,15.03,30.5,7.83,6.65,19.39,9.97,34.67,9.97s27.62-4.41,35.86-13.24c8.23-8.82,12.35-22.27,12.35-40.32Z"/>
      </g>
      <path class="cls-1" d="M326.11,631.43v-177.06c-10.12,8.93-32.44,20.23-44.04,22.91v-13.99c12.8-4.46,31.84-16.07,46.72-29.16h12.8v197.29h-15.47Z"/>
      <path class="cls-1" d="M432.77,631.42v-.89c0-24.4,20.83-54.75,59.81-85.11,33.92-26.48,42.55-34.52,42.55-59.22,0-21.42-11.9-39.88-40.17-39.88-26.78,0-40.77,12.8-45.83,41.36h-15.18c3.87-32.73,24.4-55.65,61-55.65,39.58,0,56.54,27.08,56.54,53.27,0,30.35-12.8,40.47-49.1,70.23-28.87,23.51-46.42,42.26-52.37,61.3h109.51l-2.68,14.58h-124.09Z"/>
      <path class="cls-1" d="M715.81,450.2h-84.21c-2.08,19.34-8.03,56.24-10.42,68.44,8.93-11.31,22.91-19.34,44.93-19.34,33.92,0,58.03,22.91,58.03,64.87,0,38.39-19.64,70.82-63.38,70.82-32.44,0-55.65-19.04-61.3-51.18h15.77c5.06,20.83,20.24,36.9,46.42,36.9,30.95,0,46.42-21.72,46.42-55.65,0-28.57-12.5-51.18-42.85-51.18-27.38,0-38.68,11.31-47.31,29.76l-14.88-4.17c6.25-26.19,13.09-80.64,15.77-103.85h99.09l-2.08,14.58Z"/>
      <circle class="cls-2" cx="292.95" cy="175.93" r="31.97"/>
      <circle class="cls-2" cx="442.3" cy="616.96" r="31.97"/>
      <circle class="cls-2" cx="442.3" cy="352.66" r="31.97"/>
      <circle class="cls-2" cx="302.74" cy="455.09" r="31.97"/>
      <circle class="cls-2" cx="609.64" cy="543.45" r="31.97"/>
      <circle class="cls-2" cx="619.03" cy="265.86" r="31.97"/>
    </g>
  </g>
</svg>