<?xml version="1.0" encoding="UTF-8"?>
<svg xmlns="http://www.w3.org/2000/svg" version="1.1" viewBox="0 0 1000 800">
  <defs>
    <style>
      .cls-1 {
        fill: #0326ff;
      }

      .cls-2 {
        fill: #4f4f4f;
      }

      .cls-3 {
        fill: red;
      }
    </style>
  </defs>
  <!-- Generator: Adobe Illustrator 28.7.3, SVG Export Plug-In . SVG Version: 1.2.0 Build 164)  -->
  <g>
    <g id="Layer_1">
      <g>
        <path class="cls-2" d="M25.07,29.57h-11.92l-2.99,7.83h-2.37l10.17-26.02h2.41l10.17,26.02h-2.48s-2.99-7.83-2.99-7.83ZM19.13,13.9l-5.25,13.7h10.46s-5.21-13.7-5.21-13.7Z"/>
        <path class="cls-2" d="M33.71,11.38h2.11v16.33l10.02-9.04h2.59l-6.78,6.19,7.62,12.54h-2.41l-6.78-11.26-4.26,3.83v7.43h-2.11V11.38Z"/>
        <path class="cls-2" d="M53.09,31.72v-11.33h-2.92v-1.71h2.92v-5.17h2.11v5.17h5.58v1.71h-5.58v11.88c0,1.19.25,2.11.75,2.77s1.27.98,2.31.98c.51,0,.97-.04,1.38-.13.41-.08.8-.2,1.17-.35l.4,1.68c-.46.17-.95.31-1.48.42-.52.11-1.11.16-1.77.16-1.87,0-3.15-.53-3.84-1.6s-1.04-2.56-1.04-4.48h.01Z"/>
        <path class="cls-2" d="M64.2,11.38h2.19v3.53h-2.19v-3.53ZM64.24,18.67h2.11v18.73h-2.11v-18.73Z"/>
        <path class="cls-2" d="M78.09,35.03l6.41-16.36h2.33l-7.65,18.73h-2.3l-7.62-18.73h2.44l6.38,16.36h.01Z"/>
        <path class="cls-2" d="M97.33,24.46c0-2.65.43-5,1.29-7.07.86-2.06,2.14-3.69,3.84-4.88s3.8-1.79,6.3-1.79c2.67,0,4.77.64,6.29,1.93,1.52,1.29,2.54,3.05,3.08,5.28l-2.15.4c-.46-1.8-1.25-3.19-2.37-4.17s-2.75-1.48-4.88-1.48-3.77.51-5.12,1.53c-1.35,1.02-2.34,2.42-2.99,4.19-.64,1.77-.97,3.78-.97,6.01,0,3.6.8,6.43,2.39,8.51,1.59,2.08,3.97,3.12,7.12,3.12,1.48,0,2.85-.2,4.1-.6,1.25-.4,2.34-.97,3.26-1.69v-7.18h-7.14v-2h9.26v10.02c-1.17,1.12-2.6,1.97-4.3,2.55-1.7.58-3.43.87-5.17.87-3.79,0-6.71-1.19-8.76-3.57s-3.08-5.71-3.08-9.98Z"/>
        <path class="cls-2" d="M123.42,18.67h2.11v3.06c1.51-2.26,3.49-3.39,5.94-3.39.27,0,.53.01.78.04.26.02.5.06.75.11l-.26,1.97c-.24-.05-.47-.08-.69-.11-.22-.02-.46-.04-.73-.04-.85,0-1.65.16-2.41.49-.75.33-1.45.84-2.08,1.55-.44.46-.77.96-.98,1.49-.22.53-.33,1.26-.33,2.19v11.37h-2.11v-18.73h.01Z"/>
        <path class="cls-2" d="M134.82,28.07c0-3.11.8-5.55,2.4-7.32,1.6-1.77,3.77-2.66,6.49-2.66s4.89.88,6.45,2.64c1.55,1.76,2.33,4.18,2.33,7.27s-.79,5.52-2.37,7.31-3.74,2.68-6.49,2.68-4.96-.88-6.5-2.64-2.31-4.18-2.31-7.27h0ZM137.08,28.04c0,2.5.54,4.49,1.62,5.96s2.73,2.2,4.94,2.2,3.9-.74,4.99-2.22c1.09-1.48,1.64-3.47,1.64-5.98s-.55-4.45-1.64-5.92-2.76-2.2-4.99-2.2-3.86.73-4.94,2.2c-1.08,1.47-1.62,3.46-1.62,5.96Z"/>
        <path class="cls-2" d="M157.93,31.72v-11.33h-2.92v-1.71h2.92v-5.17h2.11v5.17h5.58v1.71h-5.58v11.88c0,1.19.25,2.11.75,2.77s1.27.98,2.31.98c.51,0,.97-.04,1.38-.13.41-.08.8-.2,1.17-.35l.4,1.68c-.46.17-.95.31-1.48.42-.52.11-1.11.16-1.77.16-1.87,0-3.15-.53-3.84-1.6s-1.04-2.56-1.04-4.48h0Z"/>
        <path class="cls-2" d="M168.31,28.18c0-3.23.79-5.72,2.37-7.47s3.67-2.62,6.27-2.62,4.69.84,5.99,2.51c1.3,1.68,1.95,3.94,1.95,6.78v1.17h-14.43c.07,2.45.66,4.35,1.77,5.68,1.11,1.34,2.68,2,4.72,2,1.6,0,2.85-.33,3.75-.98.9-.66,1.49-1.58,1.79-2.77h2.04c-.32,1.7-1.11,3.04-2.39,4.03s-3.01,1.48-5.19,1.48c-2.77,0-4.9-.86-6.4-2.59-1.49-1.72-2.24-4.13-2.24-7.21h0ZM172.23,21.77c-1.01,1.34-1.58,3.05-1.73,5.14h12.28c-.07-2.31-.56-4.07-1.46-5.3-.9-1.23-2.37-1.84-4.41-1.84s-3.67.67-4.68,2Z"/>
        <path class="cls-2" d="M201.36,32.52c0-1-.29-1.78-.86-2.35s-1.72-1-3.44-1.29l-2.11-.33c-2.09-.34-3.64-.9-4.66-1.68s-1.53-1.96-1.53-3.53.65-2.94,1.95-3.86,3.01-1.38,5.12-1.38c1.6,0,2.89.19,3.86.58s1.72.95,2.26,1.68c.53.73.93,1.59,1.2,2.59l-1.93.33c-.39-1.19-.96-2.06-1.71-2.62-.75-.56-1.96-.84-3.61-.84-1.82,0-3.13.32-3.92.95-.79.63-1.18,1.46-1.18,2.48,0,.95.3,1.68.89,2.2s1.68.92,3.26,1.18l2.37.36c2.28.39,3.89,1,4.83,1.82.93.83,1.4,2.07,1.4,3.72s-.61,2.98-1.84,3.97c-1.23,1-3.04,1.49-5.45,1.49-2.26,0-4.12-.46-5.58-1.37s-2.27-2.39-2.44-4.43h2.04c.22,1.41.83,2.44,1.82,3.08,1,.64,2.37.97,4.12.97s3.1-.32,3.92-.97c.81-.64,1.22-1.56,1.22-2.75h0Z"/>
        <path class="cls-2" d="M207.85,11.38h2.11v16.33l10.02-9.04h2.59l-6.78,6.19,7.62,12.54h-2.41l-6.78-11.26-4.26,3.83v7.43h-2.11V11.38Z"/>
        <path class="cls-2" d="M13.65,72.86l-3.01,8.27h-2.61l9.21-25.44h3.15l9.61,25.44h-2.8l-3.09-8.27h-10.46ZM23.36,70.56c-2.65-7.16-4.05-10.76-4.58-12.57h-.04c-.62,2.03-2.19,6.44-4.33,12.57h8.95Z"/>
        <path class="cls-2" d="M47.64,75.64c-.83,3.2-2.96,5.93-7.33,5.93-4.79,0-8-3.51-8-9.52,0-5.1,2.79-9.69,8.22-9.69,4.94,0,6.82,3.51,7.1,5.99h-2.45c-.51-2.01-1.8-3.84-4.7-3.84-3.59,0-5.63,3.06-5.63,7.46s1.93,7.47,5.48,7.47c2.5,0,3.99-1.3,4.85-3.79h2.46Z"/>
        <path class="cls-2" d="M65.69,75.78c0,1.79.03,4.48.04,5.35h-2.36c-.07-.48-.11-1.65-.12-2.99-.83,2.1-2.65,3.43-5.74,3.43-2.85,0-6.03-1.26-6.03-6.67v-12.1h2.41v11.55c0,2.56.8,4.98,4.17,4.98,3.77,0,5.2-2.11,5.2-7.05v-9.49h2.44v12.99h-.01Z"/>
        <path class="cls-2" d="M71.41,67.52c0-1.58,0-3.27-.04-4.73h2.37c.04.59.12,2.06.1,3.06.8-1.75,2.45-3.5,5.43-3.5,2.58,0,4.49,1.3,5.21,3.47.95-1.83,2.73-3.47,5.92-3.47,2.89,0,5.77,1.68,5.77,6.72v12.06h-2.42v-11.76c0-2.31-.83-4.79-3.99-4.79s-4.76,2.59-4.76,6v10.55h-2.39v-11.7c0-2.53-.74-4.85-3.89-4.85s-4.86,2.8-4.86,6.43v10.11h-2.43v-13.61h-.02Z"/>
        <path class="cls-2" d="M101.91,54.32h2.44v3.74h-2.44v-3.74ZM101.91,62.79h2.44v18.34h-2.44v-18.34Z"/>
        <path class="cls-2" d="M110.12,67.41c0-1.6,0-3.17-.04-4.62h2.38c.08.57.12,2.74.1,3.27.77-1.74,2.27-3.71,5.94-3.71,3.34,0,6.15,1.96,6.15,6.93v11.84h-2.44v-11.5c0-3.04-1.23-5.05-4.24-5.05-3.95,0-5.4,3.18-5.4,7.03v9.51h-2.44v-13.72.02Z"/>
      </g>
    </g>
    <g id="Layer_2">
      <g>
        <path class="cls-2" d="M252.02,225.79c0-16,2.5-30.03,7.5-42.1,5-12.07,11.73-22.17,20.2-30.3,8.47-8.13,17.97-14.23,28.5-18.3,10.53-4.07,21.27-6.1,32.2-6.1,15.73,0,29.6,2.97,41.6,8.9,12,5.93,21.4,14.43,28.2,25.5,6.8,11.07,10.2,24.33,10.2,39.8,0,12.67-1.83,23.5-5.5,32.5-3.67,9-8.67,15.87-15,20.6-6.33,4.73-13.5,7.1-21.5,7.1-6.27,0-11.33-1.4-15.2-4.2-3.87-2.8-5.93-7.13-6.2-13-3.87,6.4-8.47,11.07-13.8,14-5.33,2.93-11.33,4.4-18,4.4-10.53,0-18.7-3.43-24.5-10.3-5.8-6.87-8.7-15.77-8.7-26.7s2-20.2,6-28.6,9.43-15,16.3-19.8c6.87-4.8,14.63-7.2,23.3-7.2,13.6,0,22.8,6.27,27.6,18.8l3-16.4h10.6l-11.6,65.6c-.13.67-.23,1.27-.3,1.8-.07.53-.1,1.07-.1,1.6,0,7.6,4.07,11.4,12.2,11.4,8.67,0,16-4.4,22-13.2s9-21.27,9-37.4c0-13.73-2.87-25.5-8.6-35.3-5.73-9.8-13.8-17.33-24.2-22.6-10.4-5.27-22.67-7.9-36.8-7.9-11.33,0-21.73,2.1-31.2,6.3-9.47,4.2-17.67,10.13-24.6,17.8-6.93,7.67-12.3,16.83-16.1,27.5-3.8,10.67-5.7,22.47-5.7,35.4,0,14.67,2.83,27.27,8.5,37.8,5.67,10.53,13.9,18.6,24.7,24.2,10.8,5.6,23.73,8.4,38.8,8.4,13.33,0,23.9-1.8,31.7-5.4,7.8-3.6,14.43-8.87,19.9-15.8h11.8c-6.13,9.73-14.37,17.23-24.7,22.5-10.33,5.27-23.43,7.9-39.3,7.9s-30.97-3.17-43.3-9.5c-12.33-6.33-21.9-15.4-28.7-27.2-6.8-11.8-10.2-25.97-10.2-42.5ZM303.62,226.59c0,9.33,2.07,16.43,6.2,21.3,4.13,4.87,9.73,7.3,16.8,7.3,9.87,0,17.4-3.33,22.6-10,5.2-6.67,8.6-15,10.2-25l1.2-7.4c1.47-9.07.17-16.6-3.9-22.6-4.07-6-10.23-9-18.5-9-6.27,0-12.03,1.87-17.3,5.6-5.27,3.73-9.47,8.97-12.6,15.7-3.13,6.73-4.7,14.77-4.7,24.1Z"/>
        <path class="cls-2" d="M490.38,135.19h48.6c11.33,0,20.37,1.53,27.1,4.6,6.73,3.07,11.6,7.27,14.6,12.6,3,5.33,4.5,11.53,4.5,18.6,0,7.47-1.87,13.93-5.6,19.4-3.73,5.47-9.47,9.53-17.2,12.2,9.6,2.67,16.53,7.13,20.8,13.4,4.27,6.27,6.4,13.6,6.4,22,0,11.87-3.8,21.5-11.4,28.9-7.6,7.4-19.87,11.1-36.8,11.1h-51v-142.8ZM564.78,151.89c-5.47-4.2-14.2-6.3-26.2-6.3h-36.2v52.4h39c10.67,0,18.6-2.3,23.8-6.9,5.2-4.6,7.8-11.17,7.8-19.7s-2.73-15.3-8.2-19.5ZM577.18,238.19c0-9.47-2.83-16.77-8.5-21.9-5.67-5.13-14.37-7.7-26.1-7.7h-40.2v59h38.4c13.33,0,22.73-2.53,28.2-7.6,5.47-5.07,8.2-12.33,8.2-21.8Z"/>
        <path class="cls-2" d="M735.78,240.39c0-9.87-2.7-17.2-8.1-22-5.4-4.8-12.9-7.2-22.5-7.2h-17v-10.8h17.4c8.4,0,15.03-2.43,19.9-7.3,4.87-4.87,7.3-11.63,7.3-20.3s-2.57-14.87-7.7-19.4c-5.13-4.53-12.63-6.8-22.5-6.8s-17.47,2.17-22.8,6.5c-5.33,4.33-9.27,11.03-11.8,20.1l-11-2c1.47-6.67,4.03-12.67,7.7-18,3.67-5.33,8.63-9.53,14.9-12.6,6.27-3.07,14.06-4.6,23.4-4.6,13.87,0,24.33,3.33,31.4,10,7.07,6.67,10.6,15.2,10.6,25.6,0,8.13-1.83,14.93-5.5,20.4-3.67,5.47-8.9,9.73-15.7,12.8,8,2.8,14.03,7.17,18.1,13.1,4.07,5.93,6.1,13.23,6.1,21.9,0,12.53-3.77,22.63-11.3,30.3-7.54,7.67-18.7,11.5-33.5,11.5-11.07,0-20.07-1.93-27-5.8-6.93-3.87-12.04-8.87-15.3-15-3.27-6.13-5.03-12.67-5.3-19.6h11.6c1.07,9.73,4.43,17.13,10.1,22.2,5.67,5.07,14.17,7.6,25.5,7.6,10.67,0,18.83-2.63,24.5-7.9,5.67-5.27,8.5-12.83,8.5-22.7Z"/>
        <path class="cls-2" d="M382.55,512.21c-9.9,7.08-25.65,12.89-49.38,12.89-45.02,0-76.76-30.69-76.76-79.82s32.97-88.36,85.97-88.36c40.35,0,73.66,25.18,73.66,69.49,0,36.17-18.87,58.1-43.23,58.1-11.33,0-19.15-4.81-18.96-16.67-6.63,10.49-15.14,16.64-29.05,16.64-15.86,0-28.19-11.5-28.19-34.97,0-30.58,17.99-54.28,41.26-54.28,17.11,0,23.07,9.94,24.77,16.84l3.61-14.84h12.42l-12.27,57.3c-3.01,14.07,1.08,18.38,8.62,18.38,16.51,0,28.16-17.96,28.16-45.71,0-35.89-24.68-58.85-61.5-58.85-44.14,0-71.78,32.26-71.95,76.96-.17,38.84,24.81,67.86,64.14,67.86,16.33,0,31.92-3.21,45.09-11.49l3.59,10.54ZM310.15,448.54c0,15.92,6.49,24.31,17.43,24.31,13.34,0,23.34-8.69,28.59-32.38,5.01-22.13-1.05-33.91-17.6-33.91-17.92,0-28.41,19.89-28.41,41.98Z"/>
        <path class="cls-2" d="M490.13,377.11h50.88c27.99,0,42.07,14.78,42.07,34.56,0,16.41-9.68,27.08-20.86,30.47,9.87,2.93,25.67,12.73,25.67,34.02,0,27.2-20.55,40.56-45.85,40.56h-51.91v-139.61ZM537.45,436.25c22.37,0,30.96-8.52,30.96-23.53,0-13.13-9.25-23.24-27.37-23.24h-36.91v46.77h33.32ZM504.13,504.35h37.12c17.98,0,31.91-8.75,31.91-27.88,0-16.58-10.63-27.85-36.68-27.85h-32.35v55.73Z"/>
        <path class="cls-2" d="M663.06,406.03c2.13-16.2,13.7-32.77,39.98-32.77s38.11,16.39,38.11,33.51c0,16.14-9.67,24.54-18.02,27.44v.43c13.01,4.01,23.86,14.33,23.86,33.75,0,21.62-13.55,41.26-44.32,41.26-28.34,0-41.48-18.1-43.69-35.67h13.57c2.94,12.6,12.74,23.83,30.92,23.83,20.9,0,29.28-13.98,29.28-29.18,0-19.4-12.42-27.6-31.08-27.6h-8.54v-11.54h6.97c18.75,0,27.08-7.66,27.08-22.43,0-12.93-8.83-21.89-24.63-21.89-16.66,0-23.46,8.88-26.34,20.86h-13.14Z"/>
        <rect class="cls-3" x="252.12" y="220.24" width="10.71" height="3.7"/>
        <rect class="cls-1" x="256.41" y="444.11" width="13.32" height="3.7"/>
        <rect class="cls-3" x="490.38" y="236.24" width="12" height="3.7"/>
        <rect class="cls-1" x="490.13" y="476.49" width="14" height="3.7"/>
        <rect class="cls-3" x="735.78" y="239.13" width="12.2" height="3.7"/>
        <rect class="cls-1" x="732.74" y="467.9" width="14.23" height="3.7"/>
      </g>
      <rect class="cls-3" x="262.83" y="622.11" width="88.03" height="30.43"/>
      <rect class="cls-1" x="262.83" y="688.24" width="109.53" height="30.43"/>
      <rect class="cls-3" x="482.42" y="622.11" width="98.68" height="30.43"/>
      <rect class="cls-1" x="482.42" y="688.24" width="115.12" height="30.43"/>
      <rect class="cls-3" x="681.35" y="622.11" width="100.34" height="30.43"/>
      <rect class="cls-1" x="681.35" y="688.24" width="117.02" height="30.43"/>
    </g>
  </g>
</svg>