<?xml version="1.0" encoding="UTF-8"?>
<svg xmlns="http://www.w3.org/2000/svg" version="1.1" viewBox="0 0 1000 800">
  <defs>
    <style>
      .cls-1 {
        fill: #4f4f4f;
      }
    </style>
  </defs>
  <!-- Generator: Adobe Illustrator 28.7.3, SVG Export Plug-In . SVG Version: 1.2.0 Build 164)  -->
  <g>
    <g id="Layer_1">
      <g>
        <path class="cls-1" d="M25.07,29.57h-11.92l-2.99,7.83h-2.37l10.17-26.02h2.41l10.17,26.02h-2.48s-2.99-7.83-2.99-7.83ZM19.13,13.9l-5.25,13.7h10.46s-5.21-13.7-5.21-13.7Z"/>
        <path class="cls-1" d="M33.71,11.38h2.11v16.33l10.02-9.04h2.59l-6.78,6.19,7.62,12.54h-2.41l-6.78-11.26-4.26,3.83v7.43h-2.11V11.38Z"/>
        <path class="cls-1" d="M53.09,31.72v-11.33h-2.92v-1.71h2.92v-5.17h2.11v5.17h5.58v1.71h-5.58v11.88c0,1.19.25,2.11.75,2.77s1.27.98,2.31.98c.51,0,.97-.04,1.38-.13.41-.08.8-.2,1.17-.35l.4,1.68c-.46.17-.95.31-1.48.42-.52.11-1.11.16-1.77.16-1.87,0-3.15-.53-3.84-1.6s-1.04-2.56-1.04-4.48h.01Z"/>
        <path class="cls-1" d="M64.2,11.38h2.19v3.53h-2.19v-3.53ZM64.24,18.67h2.11v18.73h-2.11v-18.73Z"/>
        <path class="cls-1" d="M78.09,35.03l6.41-16.36h2.33l-7.65,18.73h-2.3l-7.62-18.73h2.44l6.38,16.36h.01Z"/>
        <path class="cls-1" d="M97.33,24.46c0-2.65.43-5,1.29-7.07.86-2.06,2.14-3.69,3.84-4.88s3.8-1.79,6.3-1.79c2.67,0,4.77.64,6.29,1.93,1.52,1.29,2.54,3.05,3.08,5.28l-2.15.4c-.46-1.8-1.25-3.19-2.37-4.17s-2.75-1.48-4.88-1.48-3.77.51-5.12,1.53c-1.35,1.02-2.34,2.42-2.99,4.19-.64,1.77-.97,3.78-.97,6.01,0,3.6.8,6.43,2.39,8.51,1.59,2.08,3.97,3.12,7.12,3.12,1.48,0,2.85-.2,4.1-.6,1.25-.4,2.34-.97,3.26-1.69v-7.18h-7.14v-2h9.26v10.02c-1.17,1.12-2.6,1.97-4.3,2.55-1.7.58-3.43.87-5.17.87-3.79,0-6.71-1.19-8.76-3.57s-3.08-5.71-3.08-9.98Z"/>
        <path class="cls-1" d="M123.42,18.67h2.11v3.06c1.51-2.26,3.49-3.39,5.94-3.39.27,0,.53.01.78.04.26.02.5.06.75.11l-.26,1.97c-.24-.05-.47-.08-.69-.11-.22-.02-.46-.04-.73-.04-.85,0-1.65.16-2.41.49-.75.33-1.45.84-2.08,1.55-.44.46-.77.96-.98,1.49-.22.53-.33,1.26-.33,2.19v11.37h-2.11v-18.73h.01Z"/>
        <path class="cls-1" d="M134.82,28.07c0-3.11.8-5.55,2.4-7.32,1.6-1.77,3.77-2.66,6.49-2.66s4.89.88,6.45,2.64c1.55,1.76,2.33,4.18,2.33,7.27s-.79,5.52-2.37,7.31-3.74,2.68-6.49,2.68-4.96-.88-6.5-2.64-2.31-4.18-2.31-7.27h0ZM137.08,28.04c0,2.5.54,4.49,1.62,5.96s2.73,2.2,4.94,2.2,3.9-.74,4.99-2.22c1.09-1.48,1.64-3.47,1.64-5.98s-.55-4.45-1.64-5.92-2.76-2.2-4.99-2.2-3.86.73-4.94,2.2c-1.08,1.47-1.62,3.46-1.62,5.96Z"/>
        <path class="cls-1" d="M157.93,31.72v-11.33h-2.92v-1.71h2.92v-5.17h2.11v5.17h5.58v1.71h-5.58v11.88c0,1.19.25,2.11.75,2.77s1.27.98,2.31.98c.51,0,.97-.04,1.38-.13.41-.08.8-.2,1.17-.35l.4,1.68c-.46.17-.95.31-1.48.42-.52.11-1.11.16-1.77.16-1.87,0-3.15-.53-3.84-1.6s-1.04-2.56-1.04-4.48h0Z"/>
        <path class="cls-1" d="M168.31,28.18c0-3.23.79-5.72,2.37-7.47s3.67-2.62,6.27-2.62,4.69.84,5.99,2.51c1.3,1.68,1.95,3.94,1.95,6.78v1.17h-14.43c.07,2.45.66,4.35,1.77,5.68,1.11,1.34,2.68,2,4.72,2,1.6,0,2.85-.33,3.75-.98.9-.66,1.49-1.58,1.79-2.77h2.04c-.32,1.7-1.11,3.04-2.39,4.03s-3.01,1.48-5.19,1.48c-2.77,0-4.9-.86-6.4-2.59-1.49-1.72-2.24-4.13-2.24-7.21h0ZM172.23,21.77c-1.01,1.34-1.58,3.05-1.73,5.14h12.28c-.07-2.31-.56-4.07-1.46-5.3-.9-1.23-2.37-1.84-4.41-1.84s-3.67.67-4.68,2Z"/>
        <path class="cls-1" d="M201.36,32.52c0-1-.29-1.78-.86-2.35s-1.72-1-3.44-1.29l-2.11-.33c-2.09-.34-3.64-.9-4.66-1.68s-1.53-1.96-1.53-3.53.65-2.94,1.95-3.86,3.01-1.38,5.12-1.38c1.6,0,2.89.19,3.86.58s1.72.95,2.26,1.68c.53.73.93,1.59,1.2,2.59l-1.93.33c-.39-1.19-.96-2.06-1.71-2.62-.75-.56-1.96-.84-3.61-.84-1.82,0-3.13.32-3.92.95-.79.63-1.18,1.46-1.18,2.48,0,.95.3,1.68.89,2.2s1.68.92,3.26,1.18l2.37.36c2.28.39,3.89,1,4.83,1.82.93.83,1.4,2.07,1.4,3.72s-.61,2.98-1.84,3.97c-1.23,1-3.04,1.49-5.45,1.49-2.26,0-4.12-.46-5.58-1.37s-2.27-2.39-2.44-4.43h2.04c.22,1.41.83,2.44,1.82,3.08,1,.64,2.37.97,4.12.97s3.1-.32,3.92-.97c.81-.64,1.22-1.56,1.22-2.75h0Z"/>
        <path class="cls-1" d="M207.85,11.38h2.11v16.33l10.02-9.04h2.59l-6.78,6.19,7.62,12.54h-2.41l-6.78-11.26-4.26,3.83v7.43h-2.11V11.38Z"/>
        <path class="cls-1" d="M13.65,72.86l-3.01,8.27h-2.61l9.21-25.44h3.15l9.61,25.44h-2.8l-3.09-8.27h-10.46ZM23.36,70.56c-2.65-7.16-4.05-10.76-4.58-12.57h-.04c-.62,2.03-2.19,6.44-4.33,12.57h8.95Z"/>
        <path class="cls-1" d="M47.64,75.64c-.83,3.2-2.96,5.93-7.33,5.93-4.79,0-8-3.51-8-9.52,0-5.1,2.79-9.69,8.22-9.69,4.94,0,6.82,3.51,7.1,5.99h-2.45c-.51-2.01-1.8-3.84-4.7-3.84-3.59,0-5.63,3.06-5.63,7.46s1.93,7.47,5.48,7.47c2.5,0,3.99-1.3,4.85-3.79h2.46Z"/>
        <path class="cls-1" d="M65.69,75.78c0,1.79.03,4.48.04,5.35h-2.36c-.07-.48-.11-1.65-.12-2.99-.83,2.1-2.65,3.43-5.74,3.43-2.85,0-6.03-1.26-6.03-6.67v-12.1h2.41v11.55c0,2.56.8,4.98,4.17,4.98,3.77,0,5.2-2.11,5.2-7.05v-9.49h2.44v12.99h-.01Z"/>
        <path class="cls-1" d="M71.41,67.52c0-1.58,0-3.27-.04-4.73h2.37c.04.59.12,2.06.1,3.06.8-1.75,2.45-3.5,5.43-3.5,2.58,0,4.49,1.3,5.21,3.47.95-1.83,2.73-3.47,5.92-3.47,2.89,0,5.77,1.68,5.77,6.72v12.06h-2.42v-11.76c0-2.31-.83-4.79-3.99-4.79s-4.76,2.59-4.76,6v10.55h-2.39v-11.7c0-2.53-.74-4.85-3.89-4.85s-4.86,2.8-4.86,6.43v10.11h-2.43v-13.61h-.02Z"/>
        <path class="cls-1" d="M101.91,54.32h2.44v3.74h-2.44v-3.74ZM101.91,62.79h2.44v18.34h-2.44v-18.34Z"/>
        <path class="cls-1" d="M110.12,67.41c0-1.6,0-3.17-.04-4.62h2.38c.08.57.12,2.74.1,3.27.77-1.74,2.27-3.71,5.94-3.71,3.34,0,6.15,1.96,6.15,6.93v11.84h-2.44v-11.5c0-3.04-1.23-5.05-4.24-5.05-3.95,0-5.4,3.18-5.4,7.03v9.51h-2.44v-13.72.02Z"/>
      </g>
      <g>
        <g>
          <path class="cls-1" d="M170.98,359.83c0-5.87,1.51-10.48,4.54-13.83,3.03-3.35,7.22-5.75,12.59-7.22,5.37-1.47,11.53-2.34,18.5-2.61l14.17-.55v-3.03c0-7.06-1.45-12.08-4.33-15.07-2.89-2.98-7.73-4.47-14.52-4.47-6.15,0-10.8,1.03-13.96,3.1s-5.25,5.11-6.26,9.15l-7.29-.83c1.28-6.14,4.24-10.66,8.87-13.55,4.63-2.89,10.94-4.33,18.92-4.33,9.54,0,16.35,2.2,20.43,6.6,4.08,4.4,6.12,10.96,6.12,19.67v46.64h-7.84v-11.14c-2.66,3.76-6.08,6.83-10.25,9.22-4.17,2.38-9.2,3.58-15.07,3.58-7.52,0-13.51-1.81-17.95-5.43-4.45-3.62-6.67-8.92-6.67-15.89ZM179.23,359.56c0,4.68,1.42,8.32,4.27,10.94,2.84,2.61,7.2,3.92,13.07,3.92,6.88,0,12.63-1.79,17.27-5.37,4.63-3.58,6.95-8.71,6.95-15.41v-11.97l-13.48.55c-7.06.28-12.66,1.06-16.78,2.34-4.13,1.29-7.04,3.16-8.74,5.64-1.7,2.48-2.55,5.6-2.55,9.36Z"/>
          <path class="cls-1" d="M255.59,379.5h-7.98v-98.23h7.98v40.04c2.75-4.77,6.26-8.41,10.53-10.94,4.26-2.52,9.29-3.78,15.06-3.78,9.81,0,17.31,3.39,22.49,10.18,5.18,6.79,7.77,15.82,7.77,27.1s-2.8,20.87-8.39,27.65c-5.6,6.79-13.3,10.18-23.11,10.18-5.14,0-9.84-1.12-14.1-3.37s-7.68-5.71-10.25-10.39v11.56ZM255.45,340.71v6.19c0,9.36,2.06,16.37,6.19,21.05,4.13,4.68,9.91,7.02,17.33,7.02s13.05-2.55,17.4-7.64c4.36-5.09,6.54-12.91,6.54-23.46s-2.2-18.39-6.6-23.25c-4.4-4.86-9.86-7.29-16.37-7.29-7.34,0-13.25,2.41-17.75,7.22-4.49,4.82-6.74,11.54-6.74,20.16Z"/>
          <path class="cls-1" d="M325.21,344.56c0-7.8,1.33-14.51,3.99-20.16,2.66-5.64,6.49-10.02,11.49-13.14,5-3.12,10.89-4.68,17.68-4.68,7.89,0,14.12,2.02,18.71,6.05,4.58,4.04,7.61,9.72,9.08,17.06l-7.98,1.51c-1.19-5.5-3.3-9.86-6.33-13.07-3.03-3.21-7.66-4.82-13.9-4.82-5.6,0-10.18,1.35-13.76,4.06-3.58,2.71-6.21,6.4-7.91,11.07-1.7,4.68-2.54,9.95-2.54,15.82s.82,10.98,2.48,15.62c1.65,4.63,4.24,8.3,7.77,11.01,3.53,2.71,8.09,4.06,13.69,4.06,6.51,0,11.51-1.76,15-5.3,3.48-3.53,5.69-8.14,6.6-13.83h7.98c-1.19,7.89-4.27,14.17-9.22,18.85s-11.79,7.02-20.5,7.02c-10.18,0-18.12-3.28-23.8-9.84-5.69-6.56-8.53-15.66-8.53-27.31Z"/>
          <path class="cls-1" d="M400.6,344.28c0-11.74,2.82-20.96,8.46-27.65,5.64-6.69,13.32-10.04,23.04-10.04,4.95,0,9.56,1.08,13.83,3.23,4.26,2.16,7.73,5.62,10.39,10.39v-38.94h7.98v98.23h-7.84v-12.66c-2.75,4.77-6.26,8.44-10.52,11.01-4.27,2.57-9.29,3.85-15.07,3.85-6.6,0-12.15-1.58-16.65-4.75-4.49-3.16-7.89-7.57-10.18-13.21-2.29-5.64-3.44-12.13-3.44-19.47ZM408.99,344.15c0,7.06,1.01,12.86,3.03,17.4,2.02,4.54,4.79,7.89,8.32,10.04,3.53,2.16,7.45,3.23,11.76,3.23,7.52,0,13.48-2.41,17.89-7.22,4.4-4.82,6.6-11.53,6.6-20.16v-6.05c0-9.36-2.09-16.37-6.26-21.05-4.17-4.68-9.93-7.02-17.27-7.02s-13.07,2.52-17.47,7.57c-4.4,5.05-6.6,12.8-6.6,23.25Z"/>
          <path class="cls-1" d="M480.81,344.7c0-12.2,2.98-21.6,8.94-28.2,5.96-6.6,13.85-9.91,23.66-9.91s17.72,3.16,22.63,9.49c4.91,6.33,7.36,14.86,7.36,25.59v4.4h-54.48c.28,9.27,2.5,16.42,6.67,21.46,4.17,5.05,10.11,7.57,17.82,7.57,6.05,0,10.78-1.24,14.17-3.71,3.39-2.48,5.64-5.96,6.74-10.46h7.7c-1.19,6.42-4.2,11.49-9.01,15.2s-11.35,5.57-19.61,5.57c-10.46,0-18.51-3.25-24.15-9.77-5.64-6.51-8.46-15.59-8.46-27.24ZM495.6,320.48c-3.81,5.05-5.98,11.51-6.54,19.4h46.37c-.28-8.71-2.11-15.39-5.5-20.02-3.39-4.63-8.94-6.95-16.65-6.95s-13.87,2.52-17.68,7.57Z"/>
          <path class="cls-1" d="M563.77,315.25h-11.01v-6.47h11.01v-7.43c0-7.06,1.97-12.36,5.92-15.89,3.94-3.53,8.85-5.3,14.72-5.3,1.83,0,3.65.12,5.43.34,1.79.23,3.55.67,5.3,1.31l-1.38,6.33c-1.56-.46-2.98-.78-4.27-.96-1.29-.18-2.61-.28-3.99-.28-4.13,0-7.43,1.15-9.91,3.44-2.48,2.29-3.71,5.92-3.71,10.87v7.57h19.67v6.47h-19.67v64.25h-8.12v-64.25Z"/>
          <path class="cls-1" d="M636.41,293.38l-23.53,13.9-3.58-6.19,27.79-16.65h7.7v95.07h-8.39v-86.13Z"/>
          <path class="cls-1" d="M685.8,372.63c3.76-3.3,7.52-6.63,11.28-9.97,3.76-3.35,7.47-6.72,11.14-10.11,7.15-6.42,12.88-11.95,17.2-16.58,4.31-4.63,7.43-8.99,9.36-13.07,1.93-4.08,2.89-8.41,2.89-13,0-6.6-1.81-11.69-5.43-15.27-3.62-3.58-8.69-5.37-15.2-5.37-6.88,0-12.13,1.61-15.75,4.82-3.62,3.21-6.31,8.03-8.05,14.45l-7.7-1.38c1.19-4.68,3.03-8.92,5.5-12.73,2.48-3.8,5.87-6.86,10.18-9.15,4.31-2.29,9.63-3.44,15.96-3.44,9.17,0,16.3,2.52,21.39,7.57,5.09,5.05,7.64,11.65,7.64,19.81,0,5.23-1.01,10.11-3.03,14.65-2.02,4.54-5.32,9.38-9.91,14.51-4.59,5.14-10.73,11.14-18.44,18.02-2.66,2.39-5.43,4.86-8.32,7.43-2.89,2.57-5.98,5.32-9.29,8.25h49.8l-1.38,7.43h-59.85v-6.88Z"/>
          <path class="cls-1" d="M820.63,353.64c0-6.79-1.86-11.83-5.57-15.13-3.71-3.3-8.87-4.95-15.48-4.95h-11.69v-7.43h11.97c5.78,0,10.34-1.67,13.69-5.02,3.35-3.35,5.02-8,5.02-13.96s-1.77-10.23-5.3-13.35c-3.53-3.12-8.69-4.68-15.48-4.68s-12.02,1.49-15.68,4.47c-3.67,2.98-6.38,7.59-8.12,13.83l-7.57-1.38c1.01-4.59,2.77-8.71,5.3-12.38,2.52-3.67,5.94-6.56,10.25-8.67,4.31-2.11,9.68-3.16,16.1-3.16,9.54,0,16.74,2.29,21.6,6.88,4.86,4.59,7.29,10.46,7.29,17.61,0,5.6-1.26,10.27-3.78,14.03-2.52,3.76-6.12,6.7-10.8,8.81,5.5,1.93,9.65,4.93,12.45,9.01,2.8,4.08,4.2,9.1,4.2,15.07,0,8.62-2.59,15.57-7.77,20.84-5.18,5.28-12.86,7.91-23.04,7.91-7.61,0-13.81-1.33-18.57-3.99-4.77-2.66-8.28-6.1-10.52-10.32-2.25-4.22-3.46-8.71-3.65-13.48h7.98c.73,6.7,3.05,11.79,6.95,15.27,3.9,3.49,9.74,5.23,17.54,5.23,7.34,0,12.95-1.81,16.85-5.43,3.9-3.62,5.85-8.83,5.85-15.62Z"/>
        </g>
        <g>
          <path class="cls-1" d="M278.72,504.14c0,6.19.55,11.93.96,14.04h-8.83c-.55-1.61-.96-4.77-1.19-9.93-2.38,4.89-8.22,11.58-22.1,11.58-16.18,0-23.12-10.49-23.12-20.95,0-15.33,11.94-22.32,32.62-22.32h12.54v-6.53c0-6.55-2.02-14.99-16.51-14.99-12.88,0-14.9,6.61-16.3,12.16h-9.04c.87-8.49,6.12-19.92,25.59-19.9,16.3.02,25.39,6.78,25.39,22.24v34.6ZM269.71,483.58h-12.49c-14.65,0-23.22,3.92-23.22,14.85,0,8.03,5.64,13.66,14.81,13.66,18.37,0,20.9-12.28,20.9-26.14v-2.37Z"/>
          <path class="cls-1" d="M300.5,416.96h9.22v42.82c3.24-6.46,9.82-12.48,22.95-12.48,16.81,0,28.36,13.83,28.36,34.8s-10.69,37.74-30.17,37.74c-11.38,0-17.63-4.41-21.19-11.77,0,4.03-.18,8.21-.36,10.12h-8.95c.14-7.82.14-15.66.14-23.48v-77.74ZM351.42,482.28c0-16.23-7.78-26.81-20.41-26.81-16.12,0-21.79,10.9-21.79,28.28,0,15.46,5.03,27.94,21.08,27.94,13.19,0,21.12-11.09,21.12-29.41Z"/>
          <path class="cls-1" d="M430.86,497.45c-3.15,12.06-11.19,22.38-27.66,22.38-18.1,0-30.19-13.26-30.19-35.95,0-19.25,10.55-36.59,31.04-36.59,18.66,0,25.73,13.26,26.81,22.61h-9.24c-1.91-7.58-6.78-14.51-17.75-14.51-13.57,0-21.25,11.57-21.25,28.14s7.29,28.21,20.67,28.21c9.45,0,15.06-4.89,18.31-14.31h9.27Z"/>
          <path class="cls-1" d="M502.21,416.96v81.45c0,6.58,0,12.95.14,19.77h-8.85c-.3-1.74-.48-7.7-.5-10.81-3.44,7.89-10.86,12.46-22.58,12.46-17.91,0-28.77-14.56-28.77-35.48s11.78-37.05,30.76-37.05c13.12,0,18.62,5.5,20.6,9.68v-40.02h9.22ZM451.29,484.02c0,17.94,8.97,27.64,20.41,27.64,17.32,0,21.66-12.3,21.66-29.47s-3.8-26.74-20.55-26.74c-13.02,0-21.51,10.36-21.51,28.56Z"/>
          <path class="cls-1" d="M527.88,485.01c.12,16.14,8.24,26.72,20.83,26.72s16.1-6.56,18.47-11.96h9.33c-2.82,9.01-10.2,20.06-28.12,20.06-21.38,0-29.87-17.93-29.87-35.63,0-20.16,10.08-36.9,30.67-36.9,21.78,0,28.81,18.19,28.81,32,0,2.01,0,3.87-.16,5.71h-49.97ZM568.56,477.85c-.14-12.65-6.82-22.7-19.59-22.7s-19.29,9.29-20.67,22.7h40.27Z"/>
          <path class="cls-1" d="M597.82,518.18v-61.24h-11.57v-7.99h11.57v-9.13c0-12.13,4.03-24.24,19.44-24.24,2.28,0,5.51.39,7.18.94v8.24c-1.89-.48-4.86-.74-6.83-.74-7.7,0-10.57,5.12-10.57,16.29v8.63h14.53v7.99h-14.53v61.24h-9.22Z"/>
          <path class="cls-1" d="M646.49,518.18v-79.28c-4.59,3.73-14.42,8.3-19.63,9.38v-7.97c6.4-1.98,15.18-7.25,21.75-13.24h7.37v91.1h-9.49Z"/>
          <path class="cls-1" d="M677.21,518.18v-.57c0-12.1,9.17-25.91,27.48-39.99,15.15-11.72,19.12-15.34,19.12-26.12,0-9.53-5.19-17.31-17.27-17.31s-17.61,5.83-19.75,18.06h-9.2c1.7-15.22,11.33-26.26,28.95-26.26,19.2,0,27.07,12.76,27.07,25.13,0,13.88-5.87,18.86-22.63,32.25-12.95,10.32-20.4,18.34-22.93,26.29h49.22l-1.46,8.51h-58.58Z"/>
          <path class="cls-1" d="M750.19,448.54c1.47-11.14,9.43-22.54,27.5-22.54s26.22,11.28,26.22,23.05c0,11.1-6.65,16.88-12.39,18.88v.3c8.95,2.76,16.41,9.86,16.41,23.22,0,14.87-9.32,28.39-30.49,28.39-19.49,0-28.54-12.45-30.05-24.54h9.34c2.02,8.67,8.76,16.39,21.27,16.39,14.38,0,20.14-9.62,20.14-20.07,0-13.34-8.54-18.99-21.38-18.99h-5.87v-7.94h4.79c12.9,0,18.63-5.27,18.63-15.43,0-8.9-6.07-15.06-16.95-15.06-11.46,0-16.14,6.11-18.12,14.35h-9.04Z"/>
        </g>
      </g>
    </g>
  </g>
</svg>