<?xml version="1.0" encoding="UTF-8"?>
<svg xmlns="http://www.w3.org/2000/svg" version="1.1" viewBox="0 0 1000 800">
  <!-- Generator: Adobe Illustrator 29.2.1, SVG Export Plug-In . SVG Version: 2.1.0 Build 116)  -->
  <defs>
    <style>
      .st0 {
        fill: #708cf2;
      }

      .st1 {
        mix-blend-mode: multiply;
        opacity: .5;
      }

      .st2 {
        fill: #f92121;
      }

      .st3 {
        isolation: isolate;
      }

      .st4 {
        fill: #1530fc;
      }

      .st5 {
        fill: #ef7070;
      }
    </style>
  </defs>
  <g class="st3">
    <g id="Layer_1">
      <path class="st5" d="M25.07,29.57h-11.92l-2.99,7.83h-2.37l10.17-26.02h2.41l10.17,26.02h-2.48l-2.99-7.83ZM19.13,13.9l-5.25,13.7h10.46l-5.21-13.7Z"/>
      <path class="st5" d="M33.71,11.38h2.11v16.33l10.02-9.04h2.59l-6.78,6.19,7.62,12.54h-2.41l-6.78-11.26-4.26,3.83v7.43h-2.11V11.38Z"/>
      <path class="st5" d="M53.09,31.72v-11.33h-2.92v-1.71h2.92v-5.17h2.11v5.17h5.58v1.71h-5.58v11.88c0,1.19.25,2.11.75,2.77.5.66,1.27.98,2.31.98.51,0,.97-.04,1.38-.13.41-.08.8-.2,1.17-.35l.4,1.68c-.46.17-.95.31-1.48.42-.52.11-1.11.16-1.77.16-1.87,0-3.15-.53-3.84-1.6-.69-1.07-1.04-2.56-1.04-4.48Z"/>
      <path class="st5" d="M64.2,11.38h2.19v3.53h-2.19v-3.53ZM64.24,18.67h2.11v18.73h-2.11v-18.73Z"/>
      <path class="st5" d="M78.09,35.03l6.41-16.36h2.33l-7.65,18.73h-2.3l-7.62-18.73h2.44l6.38,16.36Z"/>
      <path class="st5" d="M97.33,24.46c0-2.65.43-5,1.29-7.07.86-2.06,2.14-3.69,3.84-4.88,1.7-1.19,3.8-1.79,6.3-1.79,2.67,0,4.77.64,6.29,1.93,1.52,1.29,2.54,3.05,3.08,5.28l-2.15.4c-.46-1.8-1.25-3.19-2.37-4.17-1.12-.98-2.75-1.48-4.88-1.48s-3.77.51-5.12,1.53c-1.35,1.02-2.34,2.42-2.99,4.19-.64,1.77-.97,3.78-.97,6.01,0,3.6.8,6.43,2.39,8.51,1.59,2.08,3.97,3.12,7.12,3.12,1.48,0,2.85-.2,4.1-.6,1.25-.4,2.34-.97,3.26-1.69v-7.18h-7.14v-2h9.26v10.02c-1.17,1.12-2.6,1.97-4.3,2.55-1.7.58-3.43.87-5.17.87-3.79,0-6.71-1.19-8.76-3.57-2.05-2.38-3.08-5.71-3.08-9.98Z"/>
      <path class="st5" d="M123.42,18.67h2.11v3.06c1.51-2.26,3.49-3.39,5.94-3.39.27,0,.53.01.78.04.26.02.5.06.75.11l-.26,1.97c-.24-.05-.47-.08-.69-.11-.22-.02-.46-.04-.73-.04-.85,0-1.65.16-2.41.49-.75.33-1.45.84-2.08,1.55-.44.46-.77.96-.98,1.49-.22.53-.33,1.26-.33,2.19v11.37h-2.11v-18.73Z"/>
      <path class="st5" d="M134.82,28.07c0-3.11.8-5.55,2.4-7.32,1.6-1.77,3.77-2.66,6.49-2.66s4.89.88,6.45,2.64c1.55,1.76,2.33,4.18,2.33,7.27s-.79,5.52-2.37,7.31c-1.58,1.79-3.74,2.68-6.49,2.68s-4.96-.88-6.5-2.64c-1.54-1.76-2.31-4.18-2.31-7.27ZM137.08,28.04c0,2.5.54,4.49,1.62,5.96,1.08,1.47,2.73,2.2,4.94,2.2s3.9-.74,4.99-2.22c1.09-1.48,1.64-3.47,1.64-5.98s-.55-4.45-1.64-5.92c-1.09-1.47-2.76-2.2-4.99-2.2s-3.86.73-4.94,2.2c-1.08,1.47-1.62,3.46-1.62,5.96Z"/>
      <path class="st5" d="M157.93,31.72v-11.33h-2.92v-1.71h2.92v-5.17h2.11v5.17h5.58v1.71h-5.58v11.88c0,1.19.25,2.11.75,2.77.5.66,1.27.98,2.31.98.51,0,.97-.04,1.38-.13.41-.08.8-.2,1.17-.35l.4,1.68c-.46.17-.95.31-1.48.42-.52.11-1.11.16-1.77.16-1.87,0-3.15-.53-3.84-1.6-.69-1.07-1.04-2.56-1.04-4.48Z"/>
      <path class="st5" d="M168.31,28.18c0-3.23.79-5.72,2.37-7.47,1.58-1.75,3.67-2.62,6.27-2.62s4.69.84,5.99,2.51c1.3,1.68,1.95,3.94,1.95,6.78v1.17h-14.43c.07,2.45.66,4.35,1.77,5.68,1.11,1.34,2.68,2,4.72,2,1.6,0,2.85-.33,3.75-.98.9-.66,1.49-1.58,1.79-2.77h2.04c-.32,1.7-1.11,3.04-2.39,4.03s-3.01,1.48-5.19,1.48c-2.77,0-4.9-.86-6.4-2.59-1.49-1.72-2.24-4.13-2.24-7.21ZM172.23,21.77c-1.01,1.34-1.58,3.05-1.73,5.14h12.28c-.07-2.31-.56-4.07-1.46-5.3-.9-1.23-2.37-1.84-4.41-1.84s-3.67.67-4.68,2Z"/>
      <path class="st5" d="M201.36,32.52c0-1-.29-1.78-.86-2.35-.57-.57-1.72-1-3.44-1.29l-2.11-.33c-2.09-.34-3.64-.9-4.66-1.68-1.02-.78-1.53-1.96-1.53-3.53s.65-2.94,1.95-3.86c1.3-.92,3.01-1.38,5.12-1.38,1.6,0,2.89.19,3.86.58.97.39,1.72.95,2.26,1.68.53.73.93,1.59,1.2,2.59l-1.93.33c-.39-1.19-.96-2.06-1.71-2.62-.75-.56-1.96-.84-3.61-.84-1.82,0-3.13.32-3.92.95-.79.63-1.18,1.46-1.18,2.48,0,.95.3,1.68.89,2.2.59.52,1.68.92,3.26,1.18l2.37.36c2.28.39,3.89,1,4.83,1.82.93.83,1.4,2.07,1.4,3.72s-.61,2.98-1.84,3.97c-1.23,1-3.04,1.49-5.45,1.49-2.26,0-4.12-.46-5.58-1.37s-2.27-2.39-2.44-4.43h2.04c.22,1.41.83,2.44,1.82,3.08,1,.64,2.37.97,4.12.97s3.1-.32,3.92-.97c.81-.64,1.22-1.56,1.22-2.75Z"/>
      <path class="st5" d="M207.85,11.38h2.11v16.33l10.02-9.04h2.59l-6.78,6.19,7.62,12.54h-2.41l-6.78-11.26-4.26,3.83v7.43h-2.11V11.38Z"/>
      <path class="st0" d="M13.65,72.86l-3.01,8.27h-2.61l9.21-25.44h3.15l9.61,25.44h-2.8l-3.09-8.27h-10.46ZM23.36,70.56c-2.65-7.16-4.05-10.76-4.58-12.57h-.04c-.62,2.03-2.19,6.44-4.33,12.57h8.94Z"/>
      <path class="st0" d="M47.64,75.64c-.83,3.2-2.96,5.93-7.33,5.93-4.79,0-8-3.51-8-9.52,0-5.1,2.79-9.69,8.22-9.69,4.94,0,6.82,3.51,7.1,5.99h-2.45c-.51-2.01-1.8-3.84-4.7-3.84-3.59,0-5.63,3.06-5.63,7.46s1.93,7.47,5.48,7.47c2.5,0,3.99-1.3,4.85-3.79h2.45Z"/>
      <path class="st0" d="M65.69,75.78c0,1.79.03,4.48.04,5.35h-2.36c-.07-.48-.11-1.65-.12-2.99-.83,2.1-2.65,3.43-5.74,3.43-2.85,0-6.03-1.26-6.03-6.67v-12.1h2.41v11.55c0,2.56.8,4.98,4.17,4.98,3.77,0,5.2-2.11,5.2-7.05v-9.49h2.44v12.99Z"/>
      <path class="st0" d="M71.41,67.52c0-1.58,0-3.27-.04-4.73h2.37c.04.59.12,2.06.1,3.06.8-1.75,2.45-3.5,5.43-3.5,2.58,0,4.49,1.3,5.21,3.47.95-1.83,2.73-3.47,5.92-3.47,2.89,0,5.77,1.68,5.77,6.72v12.06h-2.42v-11.76c0-2.31-.83-4.79-3.99-4.79s-4.76,2.59-4.76,6v10.55h-2.39v-11.7c0-2.53-.74-4.85-3.89-4.85s-4.86,2.8-4.86,6.43v10.11h-2.43v-13.61Z"/>
      <path class="st0" d="M101.91,54.32h2.44v3.74h-2.44v-3.74ZM101.91,62.79h2.44v18.34h-2.44v-18.34Z"/>
      <path class="st0" d="M110.12,67.41c0-1.6,0-3.17-.04-4.62h2.38c.08.57.12,2.74.1,3.27.77-1.74,2.27-3.71,5.94-3.71,3.34,0,6.15,1.96,6.15,6.93v11.84h-2.44v-11.5c0-3.04-1.23-5.05-4.24-5.05-3.95,0-5.4,3.18-5.4,7.03v9.51h-2.44v-13.72Z"/>
      <g>
        <g class="st1">
          <path class="st2" d="M113.53,266.75h28.41l96.43,239.58,97.18-239.58h27.28v266.87h-21.3v-229.12l-94.19,229.12h-19.06l-93.44-229.49v229.49h-21.3v-266.87Z"/>
          <path class="st2" d="M424.13,266.75h90.82c21.18,0,38.06,2.87,50.64,8.6,12.58,5.74,21.68,13.58,27.28,23.55,5.61,9.97,8.41,21.56,8.41,34.76,0,13.96-3.49,26.04-10.47,36.26-6.98,10.22-17.7,17.82-32.14,22.8,17.94,4.99,30.89,13.33,38.87,25.04,7.97,11.71,11.96,25.42,11.96,41.11,0,22.18-7.1,40.18-21.3,54.01s-37.13,20.74-68.77,20.74h-95.31v-266.87ZM563.17,297.96c-10.22-7.85-26.54-11.77-48.96-11.77h-67.65v97.92h72.88c19.93,0,34.76-4.3,44.48-12.89,9.72-8.6,14.58-20.87,14.58-36.82s-5.11-28.59-15.32-36.44ZM586.34,459.24c0-17.69-5.3-31.33-15.89-40.93-10.59-9.59-26.85-14.39-48.78-14.39h-75.13v110.26h71.76c24.91,0,42.48-4.73,52.7-14.2,10.21-9.47,15.32-23.04,15.32-40.74Z"/>
          <path class="st2" d="M647.63,400.19c0-29.4,4.98-54.57,14.95-75.5,9.96-20.93,23.92-36.94,41.86-48.03,17.94-11.09,38.74-16.63,62.42-16.63s45.16,5.48,62.98,16.45c17.81,10.97,31.71,26.85,41.67,47.65,9.96,20.81,14.95,45.92,14.95,75.31s-4.92,54.94-14.76,75.87c-9.85,20.93-23.68,36.94-41.49,48.03-17.82,11.08-38.94,16.63-63.35,16.63s-44.79-5.48-62.6-16.45c-17.82-10.96-31.71-26.91-41.67-47.84-9.97-20.93-14.95-46.09-14.95-75.5ZM671.55,400.19c0,24.42,3.67,45.6,11.03,63.54,7.35,17.94,18.13,31.77,32.33,41.49,14.2,9.72,31.52,14.58,51.95,14.58s37.75-4.86,51.95-14.58c14.2-9.72,25.04-23.55,32.52-41.49,7.47-17.94,11.21-39.12,11.21-63.54s-3.74-45.6-11.21-63.54c-7.48-17.94-18.31-31.83-32.52-41.67-14.2-9.84-31.52-14.76-51.95-14.76s-37.75,4.92-51.95,14.76c-14.2,9.85-24.99,23.73-32.33,41.67-7.35,17.94-11.03,39.12-11.03,63.54Z"/>
        </g>
        <g class="st1">
          <path class="st4" d="M340.24,417.59c0-49.88.43-98.91,1.55-125.61h-1.24c-10.76,38.31-58.86,159.4-90.57,241.64h-24.84c-23.9-65.11-73.69-200.3-85.53-242.08h-.93c1.93,29.96,2.74,89.44,2.74,134.17v107.9h-25.76v-260.91h39.86c33,85.63,74.09,196.99,83.45,228.13h.69c6.04-21.76,53.99-144.89,87.86-228.13h39.01v260.91h-26.3v-116.03Z"/>
        </g>
        <g class="st1">
          <path class="st4" d="M886.47,404.09c0,71.45-39.02,135.88-120.29,135.88-74.95,0-117.81-59.31-117.81-134.19s42.44-134.19,120.6-134.19c72.42,0,117.49,55.78,117.49,132.5ZM676.58,404.66c0,58.37,31.23,111.77,90.9,111.77,64.35,0,90.78-52.8,90.78-111.9s-29.92-109.39-90.33-109.39c-63.5,0-91.35,52.09-91.35,109.53Z"/>
        </g>
        <g class="st1">
          <path class="st4" d="M424.42,272.74h95.09c52.3,0,78.61,27.61,78.61,64.58,0,30.66-18.09,50.6-38.99,56.94,18.45,5.47,47.97,23.79,47.97,63.58,0,50.83-38.4,75.8-85.68,75.8h-97.01v-260.91ZM512.85,383.26c41.81,0,57.86-15.92,57.86-43.98,0-24.53-17.28-43.42-51.15-43.42h-68.97v87.4h62.26ZM450.58,510.52h69.37c33.61,0,59.63-16.35,59.63-52.09,0-30.99-19.87-52.05-68.55-52.05h-60.45v104.14Z"/>
        </g>
      </g>
    </g>
  </g>
</svg>