<?xml version="1.0" encoding="UTF-8"?>
<svg xmlns="http://www.w3.org/2000/svg" version="1.1" viewBox="0 0 1000 800">
  <defs>
    <style>
      .cls-1 {
        fill: #4f4f4f;
      }

      .cls-2 {
        fill: #ff2929;
        mix-blend-mode: multiply;
        opacity: .5;
      }

      .cls-3 {
        isolation: isolate;
      }
    </style>
  </defs>
  <!-- Generator: Adobe Illustrator 28.7.3, SVG Export Plug-In . SVG Version: 1.2.0 Build 164)  -->
  <g class="cls-3">
    <g id="Layer_1">
      <g>
        <path class="cls-1" d="M25.07,29.57h-11.92l-2.99,7.83h-2.37l10.17-26.02h2.41l10.17,26.02h-2.48s-2.99-7.83-2.99-7.83ZM19.13,13.9l-5.25,13.7h10.46s-5.21-13.7-5.21-13.7Z"/>
        <path class="cls-1" d="M33.71,11.38h2.11v16.33l10.02-9.04h2.59l-6.78,6.19,7.62,12.54h-2.41l-6.78-11.26-4.26,3.83v7.43h-2.11V11.38Z"/>
        <path class="cls-1" d="M53.09,31.72v-11.33h-2.92v-1.71h2.92v-5.17h2.11v5.17h5.58v1.71h-5.58v11.88c0,1.19.25,2.11.75,2.77s1.27.98,2.31.98c.51,0,.97-.04,1.38-.13.41-.08.8-.2,1.17-.35l.4,1.68c-.46.17-.95.31-1.48.42-.52.11-1.11.16-1.77.16-1.87,0-3.15-.53-3.84-1.6s-1.04-2.56-1.04-4.48h.01Z"/>
        <path class="cls-1" d="M64.2,11.38h2.19v3.53h-2.19v-3.53ZM64.24,18.67h2.11v18.73h-2.11v-18.73Z"/>
        <path class="cls-1" d="M78.09,35.03l6.41-16.36h2.33l-7.65,18.73h-2.3l-7.62-18.73h2.44l6.38,16.36h.01Z"/>
        <path class="cls-1" d="M97.33,24.46c0-2.65.43-5,1.29-7.07.86-2.06,2.14-3.69,3.84-4.88s3.8-1.79,6.3-1.79c2.67,0,4.77.64,6.29,1.93,1.52,1.29,2.54,3.05,3.08,5.28l-2.15.4c-.46-1.8-1.25-3.19-2.37-4.17s-2.75-1.48-4.88-1.48-3.77.51-5.12,1.53c-1.35,1.02-2.34,2.42-2.99,4.19-.64,1.77-.97,3.78-.97,6.01,0,3.6.8,6.43,2.39,8.51,1.59,2.08,3.97,3.12,7.12,3.12,1.48,0,2.85-.2,4.1-.6,1.25-.4,2.34-.97,3.26-1.69v-7.18h-7.14v-2h9.26v10.02c-1.17,1.12-2.6,1.97-4.3,2.55-1.7.58-3.43.87-5.17.87-3.79,0-6.71-1.19-8.76-3.57s-3.08-5.71-3.08-9.98Z"/>
        <path class="cls-1" d="M123.42,18.67h2.11v3.06c1.51-2.26,3.49-3.39,5.94-3.39.27,0,.53.01.78.04.26.02.5.06.75.11l-.26,1.97c-.24-.05-.47-.08-.69-.11-.22-.02-.46-.04-.73-.04-.85,0-1.65.16-2.41.49-.75.33-1.45.84-2.08,1.55-.44.46-.77.96-.98,1.49-.22.53-.33,1.26-.33,2.19v11.37h-2.11v-18.73h.01Z"/>
        <path class="cls-1" d="M134.82,28.07c0-3.11.8-5.55,2.4-7.32,1.6-1.77,3.77-2.66,6.49-2.66s4.89.88,6.45,2.64c1.55,1.76,2.33,4.18,2.33,7.27s-.79,5.52-2.37,7.31-3.74,2.68-6.49,2.68-4.96-.88-6.5-2.64-2.31-4.18-2.31-7.27h0ZM137.08,28.04c0,2.5.54,4.49,1.62,5.96s2.73,2.2,4.94,2.2,3.9-.74,4.99-2.22c1.09-1.48,1.64-3.47,1.64-5.98s-.55-4.45-1.64-5.92-2.76-2.2-4.99-2.2-3.86.73-4.94,2.2c-1.08,1.47-1.62,3.46-1.62,5.96Z"/>
        <path class="cls-1" d="M157.93,31.72v-11.33h-2.92v-1.71h2.92v-5.17h2.11v5.17h5.58v1.71h-5.58v11.88c0,1.19.25,2.11.75,2.77s1.27.98,2.31.98c.51,0,.97-.04,1.38-.13.41-.08.8-.2,1.17-.35l.4,1.68c-.46.17-.95.31-1.48.42-.52.11-1.11.16-1.77.16-1.87,0-3.15-.53-3.84-1.6s-1.04-2.56-1.04-4.48h0Z"/>
        <path class="cls-1" d="M168.31,28.18c0-3.23.79-5.72,2.37-7.47s3.67-2.62,6.27-2.62,4.69.84,5.99,2.51c1.3,1.68,1.95,3.94,1.95,6.78v1.17h-14.43c.07,2.45.66,4.35,1.77,5.68,1.11,1.34,2.68,2,4.72,2,1.6,0,2.85-.33,3.75-.98.9-.66,1.49-1.58,1.79-2.77h2.04c-.32,1.7-1.11,3.04-2.39,4.03s-3.01,1.48-5.19,1.48c-2.77,0-4.9-.86-6.4-2.59-1.49-1.72-2.24-4.13-2.24-7.21h0ZM172.23,21.77c-1.01,1.34-1.58,3.05-1.73,5.14h12.28c-.07-2.31-.56-4.07-1.46-5.3-.9-1.23-2.37-1.84-4.41-1.84s-3.67.67-4.68,2Z"/>
        <path class="cls-1" d="M201.36,32.52c0-1-.29-1.78-.86-2.35s-1.72-1-3.44-1.29l-2.11-.33c-2.09-.34-3.64-.9-4.66-1.68s-1.53-1.96-1.53-3.53.65-2.94,1.95-3.86,3.01-1.38,5.12-1.38c1.6,0,2.89.19,3.86.58s1.72.95,2.26,1.68c.53.73.93,1.59,1.2,2.59l-1.93.33c-.39-1.19-.96-2.06-1.71-2.62-.75-.56-1.96-.84-3.61-.84-1.82,0-3.13.32-3.92.95-.79.63-1.18,1.46-1.18,2.48,0,.95.3,1.68.89,2.2s1.68.92,3.26,1.18l2.37.36c2.28.39,3.89,1,4.83,1.82.93.83,1.4,2.07,1.4,3.72s-.61,2.98-1.84,3.97c-1.23,1-3.04,1.49-5.45,1.49-2.26,0-4.12-.46-5.58-1.37s-2.27-2.39-2.44-4.43h2.04c.22,1.41.83,2.44,1.82,3.08,1,.64,2.37.97,4.12.97s3.1-.32,3.92-.97c.81-.64,1.22-1.56,1.22-2.75h0Z"/>
        <path class="cls-1" d="M207.85,11.38h2.11v16.33l10.02-9.04h2.59l-6.78,6.19,7.62,12.54h-2.41l-6.78-11.26-4.26,3.83v7.43h-2.11V11.38Z"/>
        <path class="cls-1" d="M13.65,72.86l-3.01,8.27h-2.61l9.21-25.44h3.15l9.61,25.44h-2.8l-3.09-8.27h-10.46ZM23.36,70.56c-2.65-7.16-4.05-10.76-4.58-12.57h-.04c-.62,2.03-2.19,6.44-4.33,12.57h8.95Z"/>
        <path class="cls-1" d="M47.64,75.64c-.83,3.2-2.96,5.93-7.33,5.93-4.79,0-8-3.51-8-9.52,0-5.1,2.79-9.69,8.22-9.69,4.94,0,6.82,3.51,7.1,5.99h-2.45c-.51-2.01-1.8-3.84-4.7-3.84-3.59,0-5.63,3.06-5.63,7.46s1.93,7.47,5.48,7.47c2.5,0,3.99-1.3,4.85-3.79h2.46Z"/>
        <path class="cls-1" d="M65.69,75.78c0,1.79.03,4.48.04,5.35h-2.36c-.07-.48-.11-1.65-.12-2.99-.83,2.1-2.65,3.43-5.74,3.43-2.85,0-6.03-1.26-6.03-6.67v-12.1h2.41v11.55c0,2.56.8,4.98,4.17,4.98,3.77,0,5.2-2.11,5.2-7.05v-9.49h2.44v12.99h-.01Z"/>
        <path class="cls-1" d="M71.41,67.52c0-1.58,0-3.27-.04-4.73h2.37c.04.59.12,2.06.1,3.06.8-1.75,2.45-3.5,5.43-3.5,2.58,0,4.49,1.3,5.21,3.47.95-1.83,2.73-3.47,5.92-3.47,2.89,0,5.77,1.68,5.77,6.72v12.06h-2.42v-11.76c0-2.31-.83-4.79-3.99-4.79s-4.76,2.59-4.76,6v10.55h-2.39v-11.7c0-2.53-.74-4.85-3.89-4.85s-4.86,2.8-4.86,6.43v10.11h-2.43v-13.61h-.02Z"/>
        <path class="cls-1" d="M101.91,54.32h2.44v3.74h-2.44v-3.74ZM101.91,62.79h2.44v18.34h-2.44v-18.34Z"/>
        <path class="cls-1" d="M110.12,67.41c0-1.6,0-3.17-.04-4.62h2.38c.08.57.12,2.74.1,3.27.77-1.74,2.27-3.71,5.94-3.71,3.34,0,6.15,1.96,6.15,6.93v11.84h-2.44v-11.5c0-3.04-1.23-5.05-4.24-5.05-3.95,0-5.4,3.18-5.4,7.03v9.51h-2.44v-13.72.02Z"/>
      </g>
      <g>
        <g>
          <path class="cls-1" d="M236.88,279.68c0-20.52,4.93-36.64,14.79-48.34,9.86-11.7,23.29-17.56,40.29-17.56,8.66,0,16.72,1.89,24.17,5.65,7.45,3.77,13.51,9.82,18.16,18.16v-68.06h13.95v171.72h-13.71v-22.13c-4.81,8.34-10.94,14.75-18.4,19.24-7.46,4.49-16.23,6.73-26.34,6.73-11.54,0-21.25-2.77-29.1-8.3-7.86-5.53-13.79-13.23-17.8-23.09-4.01-9.86-6.01-21.2-6.01-34.03ZM251.56,279.44c0,12.35,1.76,22.49,5.29,30.42,3.53,7.94,8.38,13.79,14.55,17.56,6.17,3.77,13.02,5.65,20.56,5.65,13.15,0,23.57-4.21,31.27-12.63,7.7-8.42,11.55-20.16,11.55-35.23v-10.58c0-16.35-3.65-28.62-10.94-36.8-7.3-8.18-17.36-12.27-30.18-12.27s-22.85,4.41-30.55,13.23c-7.7,8.82-11.54,22.37-11.54,40.65Z"/>
          <path class="cls-1" d="M381.91,169.53h13.95v67.82c6.09-8.02,13.07-13.95,20.92-17.8,7.85-3.85,16.19-5.77,25.01-5.77,13.79,0,24.13,3.81,31.03,11.42,6.89,7.62,10.34,18.8,10.34,33.55v82.49h-13.95v-79.85c0-12.34-2.52-21.32-7.58-26.94-5.05-5.61-12.63-8.42-22.73-8.42-5.93,0-11.59,1-16.96,3.01-5.37,2.01-10.22,5.09-14.55,9.26-4.17,4.01-7.14,7.86-8.9,11.54-1.77,3.69-2.65,9.14-2.65,16.35v75.04h-13.95v-171.72Z"/>
          <path class="cls-1" d="M516.11,217.63h13.95v22.13c4.81-8.5,10.94-14.95,18.4-19.36,7.45-4.41,16.23-6.61,26.34-6.61,17.16,0,30.26,5.93,39.32,17.8,9.06,11.87,13.59,27.66,13.59,47.38s-4.89,36.48-14.67,48.34c-9.78,11.87-23.25,17.8-40.41,17.8-8.82,0-17-1.97-24.53-5.89-7.54-3.93-13.55-10.06-18.04-18.4v67.1h-13.95v-170.28ZM612.8,278.96c0-18.6-3.85-32.15-11.55-40.65-7.7-8.5-17.24-12.75-28.62-12.75-13.63,0-24.17,4.41-31.63,13.23-7.46,8.82-11.18,20.36-11.18,34.63v10.82c0,15.23,3.4,27.22,10.22,35.96,6.81,8.74,17.11,13.11,30.9,13.11,12.66,0,22.81-4.45,30.43-13.35,7.61-8.9,11.42-22.57,11.42-41.01Z"/>
          <path class="cls-1" d="M749.17,319.36c-4.81,8.18-10.91,14.51-18.28,19-7.38,4.49-16.11,6.73-26.22,6.73-11.54,0-21.25-2.77-29.1-8.3-7.86-5.53-13.79-13.23-17.8-23.09-4.01-9.86-6.01-21.2-6.01-34.03,0-20.52,4.93-36.64,14.79-48.34,9.86-11.7,23.29-17.56,40.29-17.56,8.66,0,16.72,1.89,24.17,5.65,7.45,3.77,13.59,9.82,18.4,18.16v-19.96h13.71v170.28h-13.95v-68.55ZM749.65,285.21v-10.58c0-16.35-3.65-28.62-10.94-36.8-7.3-8.18-17.36-12.27-30.18-12.27s-22.85,4.41-30.55,13.23c-7.7,8.82-11.54,22.37-11.54,40.65,0,12.35,1.76,22.49,5.29,30.42,3.53,7.94,8.38,13.79,14.55,17.56,6.17,3.77,13.02,5.65,20.56,5.65,13.15,0,23.57-4.21,31.27-12.63,7.7-8.42,11.55-20.16,11.55-35.23Z"/>
        </g>
        <g>
          <path class="cls-1" d="M344.09,392.3v142.39c0,11.51,0,22.65.24,34.56h-15.48c-.52-3.04-.84-13.46-.88-18.89-6.01,13.78-18.98,21.78-39.48,21.78-31.3,0-50.29-25.45-50.29-62.03s20.6-64.76,53.77-64.76c22.93,0,32.55,9.61,36.01,16.92v-69.95h16.11ZM255.07,509.54c0,31.37,15.69,48.32,35.68,48.32,30.28,0,37.86-21.5,37.86-51.51s-6.65-46.74-35.93-46.74c-22.77,0-37.61,18.11-37.61,49.93Z"/>
          <path class="cls-1" d="M397.91,392.3v75.12c6.5-11.7,17.98-22.09,38.95-22.09,18.19,0,40.84,9.58,40.84,46.81v77.1h-16.07v-74.19c0-22.42-9.9-35-28.86-35-22.96,0-34.86,14.59-34.86,42.29v66.91h-16.11v-176.94h16.11Z"/>
          <path class="cls-1" d="M531.6,552.68v64.59h-16.07v-139.39c0-9.9,0-20.37-.24-29.66h15.72c.48,4.34.6,11.63.6,20.53,7.07-13.47,19.91-23.41,41.21-23.41,28.3,0,48.37,23.73,48.37,60.27,0,43.41-23.28,66.52-52.58,66.52-20.51,0-31.23-8.88-37.01-19.45ZM604.38,506.24c0-26.97-12.7-46.43-35.16-46.43-27.37,0-38.46,17.24-38.46,48.56s8.84,49.53,36.82,49.53c23.78,0,36.8-19.89,36.8-51.65Z"/>
          <path class="cls-1" d="M732.22,550.11c-6,13.28-17.27,22.02-39.97,22.02-27.66,0-50.05-22.46-50.05-61.99s24.45-64.8,53.13-64.8c23.68,0,33.99,11.29,36.88,19.77-.16-4.91.32-11.21.6-16.88h15.36c-.2,13.5-.24,22.44-.24,33.55v135.5h-15.72v-67.16ZM659.08,509.34c0,25.48,11.7,48.52,36.65,48.52,28.24,0,36.97-19.11,36.97-49.77s-7.56-48.28-36.09-48.28c-24.38,0-37.53,20.69-37.53,49.53Z"/>
        </g>
        <circle class="cls-2" cx="340.51" cy="187.07" r="25.84"/>
        <circle class="cls-2" cx="335.05" cy="402.64" r="25.84"/>
        <circle class="cls-2" cx="523.7" cy="612.93" r="25.84"/>
        <circle class="cls-2" cx="523.7" cy="373.09" r="25.84"/>
      </g>
    </g>
  </g>
</svg>