<?xml version="1.0" encoding="UTF-8"?>
<svg xmlns="http://www.w3.org/2000/svg" version="1.1" viewBox="0 0 1000 800">
  <defs>
    <style>
      .cls-1 {
        fill: #f92121;
      }

      .cls-2 {
        fill: #708cf2;
      }

      .cls-3 {
        isolation: isolate;
      }

      .cls-4 {
        fill: #ef7070;
      }

      .cls-5 {
        fill: #1530fc;
      }

      .cls-5, .cls-6 {
        mix-blend-mode: multiply;
        opacity: .5;
      }
    </style>
  </defs>
  <!-- Generator: Adobe Illustrator 28.7.3, SVG Export Plug-In . SVG Version: 1.2.0 Build 164)  -->
  <g class="cls-3">
    <g id="Layer_1">
      <path class="cls-4" d="M25.07,29.57h-11.92l-2.99,7.83h-2.37l10.17-26.02h2.41l10.17,26.02h-2.48s-2.99-7.83-2.99-7.83ZM19.13,13.9l-5.25,13.7h10.46s-5.21-13.7-5.21-13.7Z"/>
      <path class="cls-4" d="M33.71,11.38h2.11v16.33l10.02-9.04h2.59l-6.78,6.19,7.62,12.54h-2.41l-6.78-11.26-4.26,3.83v7.43h-2.11V11.38Z"/>
      <path class="cls-4" d="M53.09,31.72v-11.33h-2.92v-1.71h2.92v-5.17h2.11v5.17h5.58v1.71h-5.58v11.88c0,1.19.25,2.11.75,2.77s1.27.98,2.31.98c.51,0,.97-.04,1.38-.13.41-.08.8-.2,1.17-.35l.4,1.68c-.46.17-.95.31-1.48.42-.52.11-1.11.16-1.77.16-1.87,0-3.15-.53-3.84-1.6s-1.04-2.56-1.04-4.48h.01Z"/>
      <path class="cls-4" d="M64.2,11.38h2.19v3.53h-2.19v-3.53ZM64.24,18.67h2.11v18.73h-2.11v-18.73Z"/>
      <path class="cls-4" d="M78.09,35.03l6.41-16.36h2.33l-7.65,18.73h-2.3l-7.62-18.73h2.44l6.38,16.36h.01Z"/>
      <path class="cls-4" d="M97.33,24.46c0-2.65.43-5,1.29-7.07.86-2.06,2.14-3.69,3.84-4.88s3.8-1.79,6.3-1.79c2.67,0,4.77.64,6.29,1.93,1.52,1.29,2.54,3.05,3.08,5.28l-2.15.4c-.46-1.8-1.25-3.19-2.37-4.17s-2.75-1.48-4.88-1.48-3.77.51-5.12,1.53c-1.35,1.02-2.34,2.42-2.99,4.19-.64,1.77-.97,3.78-.97,6.01,0,3.6.8,6.43,2.39,8.51,1.59,2.08,3.97,3.12,7.12,3.12,1.48,0,2.85-.2,4.1-.6,1.25-.4,2.34-.97,3.26-1.69v-7.18h-7.14v-2h9.26v10.02c-1.17,1.12-2.6,1.97-4.3,2.55-1.7.58-3.43.87-5.17.87-3.79,0-6.71-1.19-8.76-3.57s-3.08-5.71-3.08-9.98Z"/>
      <path class="cls-4" d="M123.42,18.67h2.11v3.06c1.51-2.26,3.49-3.39,5.94-3.39.27,0,.53.01.78.04.26.02.5.06.75.11l-.26,1.97c-.24-.05-.47-.08-.69-.11-.22-.02-.46-.04-.73-.04-.85,0-1.65.16-2.41.49-.75.33-1.45.84-2.08,1.55-.44.46-.77.96-.98,1.49-.22.53-.33,1.26-.33,2.19v11.37h-2.11v-18.73h.01Z"/>
      <path class="cls-4" d="M134.82,28.07c0-3.11.8-5.55,2.4-7.32,1.6-1.77,3.77-2.66,6.49-2.66s4.89.88,6.45,2.64c1.55,1.76,2.33,4.18,2.33,7.27s-.79,5.52-2.37,7.31-3.74,2.68-6.49,2.68-4.96-.88-6.5-2.64-2.31-4.18-2.31-7.27h0ZM137.08,28.04c0,2.5.54,4.49,1.62,5.96s2.73,2.2,4.94,2.2,3.9-.74,4.99-2.22c1.09-1.48,1.64-3.47,1.64-5.98s-.55-4.45-1.64-5.92-2.76-2.2-4.99-2.2-3.86.73-4.94,2.2c-1.08,1.47-1.62,3.46-1.62,5.96Z"/>
      <path class="cls-4" d="M157.93,31.72v-11.33h-2.92v-1.71h2.92v-5.17h2.11v5.17h5.58v1.71h-5.58v11.88c0,1.19.25,2.11.75,2.77s1.27.98,2.31.98c.51,0,.97-.04,1.38-.13.41-.08.8-.2,1.17-.35l.4,1.68c-.46.17-.95.31-1.48.42-.52.11-1.11.16-1.77.16-1.87,0-3.15-.53-3.84-1.6s-1.04-2.56-1.04-4.48h0Z"/>
      <path class="cls-4" d="M168.31,28.18c0-3.23.79-5.72,2.37-7.47s3.67-2.62,6.27-2.62,4.69.84,5.99,2.51c1.3,1.68,1.95,3.94,1.95,6.78v1.17h-14.43c.07,2.45.66,4.35,1.77,5.68,1.11,1.34,2.68,2,4.72,2,1.6,0,2.85-.33,3.75-.98.9-.66,1.49-1.58,1.79-2.77h2.04c-.32,1.7-1.11,3.04-2.39,4.03s-3.01,1.48-5.19,1.48c-2.77,0-4.9-.86-6.4-2.59-1.49-1.72-2.24-4.13-2.24-7.21h0ZM172.23,21.77c-1.01,1.34-1.58,3.05-1.73,5.14h12.28c-.07-2.31-.56-4.07-1.46-5.3-.9-1.23-2.37-1.84-4.41-1.84s-3.67.67-4.68,2Z"/>
      <path class="cls-4" d="M201.36,32.52c0-1-.29-1.78-.86-2.35s-1.72-1-3.44-1.29l-2.11-.33c-2.09-.34-3.64-.9-4.66-1.68s-1.53-1.96-1.53-3.53.65-2.94,1.95-3.86,3.01-1.38,5.12-1.38c1.6,0,2.89.19,3.86.58s1.72.95,2.26,1.68c.53.73.93,1.59,1.2,2.59l-1.93.33c-.39-1.19-.96-2.06-1.71-2.62-.75-.56-1.96-.84-3.61-.84-1.82,0-3.13.32-3.92.95-.79.63-1.18,1.46-1.18,2.48,0,.95.3,1.68.89,2.2s1.68.92,3.26,1.18l2.37.36c2.28.39,3.89,1,4.83,1.82.93.83,1.4,2.07,1.4,3.72s-.61,2.98-1.84,3.97c-1.23,1-3.04,1.49-5.45,1.49-2.26,0-4.12-.46-5.58-1.37s-2.27-2.39-2.44-4.43h2.04c.22,1.41.83,2.44,1.82,3.08,1,.64,2.37.97,4.12.97s3.1-.32,3.92-.97c.81-.64,1.22-1.56,1.22-2.75h0Z"/>
      <path class="cls-4" d="M207.85,11.38h2.11v16.33l10.02-9.04h2.59l-6.78,6.19,7.62,12.54h-2.41l-6.78-11.26-4.26,3.83v7.43h-2.11V11.38Z"/>
      <path class="cls-2" d="M13.65,72.86l-3.01,8.27h-2.61l9.21-25.44h3.15l9.61,25.44h-2.8l-3.09-8.27h-10.46ZM23.36,70.56c-2.65-7.16-4.05-10.76-4.58-12.57h-.04c-.62,2.03-2.19,6.44-4.33,12.57h8.95Z"/>
      <path class="cls-2" d="M47.64,75.64c-.83,3.2-2.96,5.93-7.33,5.93-4.79,0-8-3.51-8-9.52,0-5.1,2.79-9.69,8.22-9.69,4.94,0,6.82,3.51,7.1,5.99h-2.45c-.51-2.01-1.8-3.84-4.7-3.84-3.59,0-5.63,3.06-5.63,7.46s1.93,7.47,5.48,7.47c2.5,0,3.99-1.3,4.85-3.79h2.46Z"/>
      <path class="cls-2" d="M65.69,75.78c0,1.79.03,4.48.04,5.35h-2.36c-.07-.48-.11-1.65-.12-2.99-.83,2.1-2.65,3.43-5.74,3.43-2.85,0-6.03-1.26-6.03-6.67v-12.1h2.41v11.55c0,2.56.8,4.98,4.17,4.98,3.77,0,5.2-2.11,5.2-7.05v-9.49h2.44v12.99h-.01Z"/>
      <path class="cls-2" d="M71.41,67.52c0-1.58,0-3.27-.04-4.73h2.37c.04.59.12,2.06.1,3.06.8-1.75,2.45-3.5,5.43-3.5,2.58,0,4.49,1.3,5.21,3.47.95-1.83,2.73-3.47,5.92-3.47,2.89,0,5.77,1.68,5.77,6.72v12.06h-2.42v-11.76c0-2.31-.83-4.79-3.99-4.79s-4.76,2.59-4.76,6v10.55h-2.39v-11.7c0-2.53-.74-4.85-3.89-4.85s-4.86,2.8-4.86,6.43v10.11h-2.43v-13.61h-.02Z"/>
      <path class="cls-2" d="M101.91,54.32h2.44v3.74h-2.44v-3.74ZM101.91,62.79h2.44v18.34h-2.44v-18.34Z"/>
      <path class="cls-2" d="M110.12,67.41c0-1.6,0-3.17-.04-4.62h2.38c.08.57.12,2.74.1,3.27.77-1.74,2.27-3.71,5.94-3.71,3.34,0,6.15,1.96,6.15,6.93v11.84h-2.44v-11.5c0-3.04-1.23-5.05-4.24-5.05-3.95,0-5.4,3.18-5.4,7.03v9.51h-2.44v-13.72.02Z"/>
    </g>
    <g id="Layer_2">
      <g>
        <g class="cls-6">
          <path class="cls-1" d="M165,488.04h-18.7v-230.21h18.7v93.83c6.45-11.18,14.67-19.72,24.67-25.63,10-5.91,21.76-8.87,35.31-8.87,23,0,40.57,7.96,52.72,23.86,12.14,15.91,18.22,37.08,18.22,63.52s-6.56,48.9-19.67,64.81c-13.11,15.91-31.17,23.86-54.17,23.86-12.04,0-23.05-2.63-33.05-7.9-10-5.26-18.01-13.38-24.02-24.34v27.08ZM164.68,397.11v14.51c0,21.92,4.84,38.37,14.51,49.33,9.67,10.96,23.21,16.44,40.62,16.44s30.58-5.96,40.79-17.89c10.21-11.93,15.32-30.25,15.32-54.97s-5.16-43.09-15.48-54.49c-10.32-11.39-23.11-17.09-38.37-17.09-17.2,0-31.06,5.64-41.59,16.93-10.53,11.28-15.8,27.03-15.8,47.23Z"/>
          <path class="cls-1" d="M328.15,405.5c0-27.51,6.61-49.11,19.83-64.81,13.22-15.69,31.22-23.54,54.01-23.54,11.61,0,22.41,2.53,32.4,7.58,10,5.05,18.11,13.17,24.34,24.34v-91.25h18.7v230.21h-18.38v-29.66c-6.45,11.18-14.67,19.78-24.67,25.79-10,6.02-21.76,9.03-35.31,9.03-15.48,0-28.48-3.71-39.01-11.12-10.53-7.42-18.49-17.73-23.86-30.95-5.37-13.22-8.06-28.42-8.06-45.62ZM347.82,405.17c0,16.55,2.36,30.15,7.09,40.79,4.73,10.64,11.23,18.49,19.51,23.54,8.27,5.05,17.46,7.58,27.57,7.58,17.62,0,31.6-5.64,41.91-16.93,10.32-11.29,15.48-27.03,15.48-47.24v-14.19c0-21.92-4.89-38.37-14.67-49.33-9.78-10.96-23.27-16.44-40.46-16.44s-30.63,5.91-40.95,17.73c-10.32,11.82-15.48,29.99-15.48,54.49Z"/>
          <path class="cls-1" d="M522.57,322.31h18.7v29.66c6.45-11.39,14.67-20.04,24.66-25.96,10-5.91,21.76-8.87,35.31-8.87,23,0,40.57,7.96,52.72,23.86,12.14,15.91,18.22,37.08,18.22,63.52s-6.56,48.9-19.67,64.81c-13.11,15.91-31.17,23.86-54.17,23.86-11.82,0-22.79-2.63-32.89-7.9-10.11-5.26-18.17-13.49-24.18-24.67v89.96h-18.7v-228.27ZM652.18,404.53c0-24.93-5.16-43.09-15.48-54.49-10.32-11.39-23.11-17.09-38.37-17.09-18.27,0-32.4,5.91-42.4,17.73-10,11.82-14.99,27.3-14.99,46.43v14.51c0,20.42,4.56,36.49,13.7,48.2,9.13,11.72,22.94,17.57,41.43,17.57,16.98,0,30.58-5.96,40.79-17.89,10.21-11.93,15.32-30.25,15.32-54.97Z"/>
          <path class="cls-1" d="M835,458.7c-6.45,10.96-14.62,19.46-24.5,25.47-9.89,6.02-21.6,9.03-35.14,9.03-15.48,0-28.48-3.71-39.01-11.12-10.53-7.42-18.49-17.73-23.86-30.95-5.37-13.22-8.06-28.42-8.06-45.62,0-27.51,6.61-49.11,19.83-64.81,13.22-15.69,31.22-23.54,54.01-23.54,11.61,0,22.41,2.53,32.4,7.58,10,5.05,18.22,13.17,24.67,24.34v-26.76h18.38v228.27h-18.7v-91.89ZM835.64,412.91v-14.19c0-21.92-4.89-38.37-14.67-49.33-9.78-10.96-23.27-16.44-40.46-16.44s-30.63,5.91-40.95,17.73c-10.32,11.82-15.48,29.99-15.48,54.49,0,16.55,2.36,30.15,7.09,40.79,4.73,10.64,11.23,18.49,19.51,23.54,8.27,5.05,17.46,7.58,27.57,7.58,17.62,0,31.6-5.64,41.91-16.93,10.32-11.29,15.48-27.03,15.48-47.24Z"/>
        </g>
        <path class="cls-5" d="M150.95,249.41h21.6v100.34c7.58-15.14,23.02-29.25,53.79-29.25,39.39,0,66.46,32.41,66.46,81.55s-25.05,88.43-70.7,88.43c-26.67,0-41.32-10.34-49.65-27.58,0,9.44-.43,19.25-.85,23.71h-20.97c.32-18.33.32-36.7.32-55.03v-182.18ZM270.28,402.48c0-38.03-18.23-62.84-47.83-62.84-37.77,0-51.08,25.54-51.08,66.28,0,36.24,11.8,65.48,49.4,65.48,30.91,0,49.5-26,49.5-68.92Z"/>
        <path class="cls-5" d="M473.6,249.41v190.88c0,15.42,0,30.36.32,46.32h-20.75c-.7-4.08-1.12-18.04-1.17-25.33-8.06,18.48-25.44,29.19-52.92,29.19-41.97,0-67.42-34.12-67.42-83.16s27.61-86.82,72.08-86.82c30.74,0,43.64,12.88,48.27,22.68v-93.78h21.6ZM354.27,406.58c0,42.05,21.03,64.77,47.83,64.77,40.59,0,50.75-28.82,50.75-69.05s-8.91-62.66-48.16-62.66c-30.52,0-50.42,24.28-50.42,66.94Z"/>
        <path class="cls-5" d="M548.38,462.6v86.58h-21.55v-186.86c0-13.27,0-27.3-.32-39.76h21.07c.64,5.82.8,15.59.8,27.52,9.48-18.05,26.69-31.39,55.25-31.39,37.94,0,64.84,31.81,64.84,80.8,0,58.19-31.21,89.18-70.48,89.18-27.49,0-41.86-11.9-49.61-26.07ZM645.96,400.35c0-36.16-17.02-62.24-47.13-62.24-36.69,0-51.56,23.11-51.56,65.09s11.85,66.4,49.36,66.4c31.88,0,49.34-26.67,49.34-69.25Z"/>
        <path class="cls-5" d="M828.69,459.09c-8.05,17.81-23.15,29.52-53.58,29.52-37.08,0-67.09-30.11-67.09-83.11s32.78-86.87,71.23-86.87c31.75,0,45.57,15.14,49.44,26.5-.22-6.58.43-15.02.8-22.63h20.59c-.27,18.09-.32,30.09-.32,44.97v181.65h-21.07v-90.03ZM730.64,404.43c0,34.16,15.68,65.04,49.13,65.04,37.86,0,49.57-25.62,49.57-66.72s-10.13-64.72-48.38-64.72c-32.69,0-50.32,27.74-50.32,66.4Z"/>
      </g>
    </g>
  </g>
</svg>